<svg width="516" height="235" viewBox="0 0 516 235" fill="none" xmlns="http://www.w3.org/2000/svg">
<path fill-rule="evenodd" clip-rule="evenodd" d="M281.505 43.2823C279.675 43.2823 278.191 44.8084 278.191 46.6909V69.5007C278.191 71.3832 279.675 72.9093 281.505 72.9093H318.495C320.325 72.9093 321.809 71.3832 321.809 69.5007V46.6909C321.809 44.8084 320.325 43.2823 318.495 43.2823H312.947H287.029H281.505ZM275 46.6909C275 42.9956 277.913 40 281.505 40H287.029H312.947H318.495C322.087 40 325 42.9956 325 46.6909V69.5007C325 73.196 322.087 76.1916 318.495 76.1916H301.596V81.7177H311.256C312.137 81.7177 312.851 82.4524 312.851 83.3588C312.851 84.2652 312.137 85 311.256 85H288.744C287.863 85 287.149 84.2652 287.149 83.3588C287.149 82.4524 287.863 81.7177 288.744 81.7177H298.404V76.1916H281.505C277.913 76.1916 275 73.196 275 69.5007V46.6909Z" fill="#CCCCCC"/>
<path d="M285.674 103V92.8182H286.907V97.3523H292.336V92.8182H293.569V103H292.336V98.446H286.907V103H285.674ZM298.981 103.159C298.291 103.159 297.687 102.995 297.166 102.667C296.649 102.339 296.245 101.88 295.953 101.29C295.665 100.7 295.521 100.01 295.521 99.2216C295.521 98.4261 295.665 97.7318 295.953 97.1385C296.245 96.5452 296.649 96.0845 297.166 95.7564C297.687 95.4283 298.291 95.2642 298.981 95.2642C299.67 95.2642 300.273 95.4283 300.79 95.7564C301.311 96.0845 301.715 96.5452 302.004 97.1385C302.295 97.7318 302.441 98.4261 302.441 99.2216C302.441 100.01 302.295 100.7 302.004 101.29C301.715 101.88 301.311 102.339 300.79 102.667C300.273 102.995 299.67 103.159 298.981 103.159ZM298.981 102.105C299.504 102.105 299.935 101.971 300.273 101.702C300.612 101.434 300.862 101.081 301.024 100.643C301.187 100.206 301.268 99.732 301.268 99.2216C301.268 98.7112 301.187 98.2356 301.024 97.7947C300.862 97.3539 300.612 96.9976 300.273 96.7259C299.935 96.4541 299.504 96.3182 298.981 96.3182C298.457 96.3182 298.026 96.4541 297.688 96.7259C297.35 96.9976 297.1 97.3539 296.938 97.7947C296.775 98.2356 296.694 98.7112 296.694 99.2216C296.694 99.732 296.775 100.206 296.938 100.643C297.1 101.081 297.35 101.434 297.688 101.702C298.026 101.971 298.457 102.105 298.981 102.105ZM309.641 97.0739L308.587 97.3722C308.521 97.1965 308.423 97.0258 308.294 96.8601C308.168 96.6911 307.996 96.5518 307.777 96.4425C307.558 96.3331 307.278 96.2784 306.937 96.2784C306.469 96.2784 306.08 96.3861 305.768 96.6016C305.46 96.8137 305.306 97.0838 305.306 97.4119C305.306 97.7036 305.412 97.9339 305.624 98.103C305.836 98.272 306.168 98.4129 306.618 98.5256L307.752 98.804C308.435 98.9697 308.943 99.2232 309.278 99.5646C309.613 99.9027 309.78 100.339 309.78 100.872C309.78 101.31 309.654 101.701 309.403 102.045C309.154 102.39 308.806 102.662 308.358 102.861C307.911 103.06 307.391 103.159 306.797 103.159C306.019 103.159 305.374 102.99 304.863 102.652C304.353 102.314 304.03 101.82 303.894 101.17L305.008 100.892C305.114 101.303 305.314 101.611 305.609 101.817C305.907 102.022 306.297 102.125 306.778 102.125C307.324 102.125 307.759 102.009 308.08 101.777C308.405 101.542 308.567 101.26 308.567 100.932C308.567 100.667 308.474 100.445 308.289 100.266C308.103 100.083 307.818 99.9474 307.434 99.858L306.161 99.5597C305.462 99.3939 304.948 99.1371 304.62 98.7891C304.295 98.4377 304.133 97.9986 304.133 97.4716C304.133 97.0407 304.254 96.6596 304.496 96.3281C304.741 95.9967 305.074 95.7365 305.495 95.5476C305.919 95.3587 306.4 95.2642 306.937 95.2642C307.692 95.2642 308.286 95.4299 308.716 95.7614C309.151 96.0928 309.459 96.5303 309.641 97.0739ZM314.868 95.3636V96.358H310.91V95.3636H314.868ZM312.064 93.5341H313.237V100.812C313.237 101.144 313.285 101.393 313.381 101.558C313.48 101.721 313.606 101.83 313.759 101.886C313.915 101.939 314.079 101.966 314.251 101.966C314.38 101.966 314.486 101.959 314.569 101.946C314.652 101.929 314.718 101.916 314.768 101.906L315.007 102.96C314.927 102.99 314.816 103.02 314.674 103.05C314.531 103.083 314.35 103.099 314.132 103.099C313.8 103.099 313.475 103.028 313.157 102.886C312.842 102.743 312.581 102.526 312.372 102.234C312.166 101.943 312.064 101.575 312.064 101.131V93.5341Z" fill="#CCCCCC"/>
<path d="M276.808 118L274.422 109.273H275.496L277.319 116.381H277.405L279.263 109.273H280.456L282.314 116.381H282.399L284.223 109.273H285.297L282.91 118H281.819L279.893 111.045H279.825L277.899 118H276.808ZM286.477 118V111.455H287.483V118H286.477ZM286.988 110.364C286.792 110.364 286.623 110.297 286.481 110.163C286.342 110.03 286.273 109.869 286.273 109.682C286.273 109.494 286.342 109.334 286.481 109.2C286.623 109.067 286.792 109 286.988 109C287.184 109 287.352 109.067 287.491 109.2C287.633 109.334 287.704 109.494 287.704 109.682C287.704 109.869 287.633 110.03 287.491 110.163C287.352 110.297 287.184 110.364 286.988 110.364ZM290.33 114.062V118H289.325V111.455H290.296V112.477H290.382C290.535 112.145 290.768 111.878 291.08 111.676C291.393 111.472 291.796 111.369 292.291 111.369C292.734 111.369 293.122 111.46 293.454 111.642C293.786 111.821 294.045 112.094 294.23 112.46C294.414 112.824 294.507 113.284 294.507 113.841V118H293.501V113.909C293.501 113.395 293.367 112.994 293.1 112.707C292.833 112.418 292.467 112.273 292.001 112.273C291.68 112.273 291.393 112.342 291.14 112.482C290.89 112.621 290.693 112.824 290.548 113.091C290.403 113.358 290.33 113.682 290.33 114.062ZM298.816 118.136C298.27 118.136 297.789 117.999 297.371 117.723C296.954 117.445 296.627 117.053 296.391 116.547C296.155 116.038 296.037 115.438 296.037 114.744C296.037 114.057 296.155 113.46 296.391 112.955C296.627 112.449 296.955 112.058 297.376 111.783C297.796 111.507 298.282 111.369 298.833 111.369C299.259 111.369 299.596 111.44 299.843 111.582C300.093 111.722 300.283 111.881 300.414 112.06C300.547 112.236 300.651 112.381 300.725 112.494H300.81V109.273H301.816V118H300.844V116.994H300.725C300.651 117.114 300.546 117.264 300.41 117.446C300.273 117.625 300.079 117.786 299.826 117.928C299.573 118.067 299.236 118.136 298.816 118.136ZM298.952 117.233C299.356 117.233 299.697 117.128 299.975 116.918C300.253 116.705 300.465 116.411 300.61 116.036C300.755 115.658 300.827 115.222 300.827 114.727C300.827 114.239 300.756 113.811 300.614 113.445C300.472 113.075 300.262 112.788 299.983 112.584C299.705 112.376 299.361 112.273 298.952 112.273C298.526 112.273 298.171 112.382 297.887 112.601C297.606 112.817 297.394 113.111 297.252 113.483C297.113 113.852 297.043 114.267 297.043 114.727C297.043 115.193 297.114 115.616 297.256 115.997C297.401 116.375 297.614 116.676 297.895 116.901C298.18 117.122 298.532 117.233 298.952 117.233ZM306.456 118.136C305.866 118.136 305.347 117.996 304.901 117.714C304.458 117.433 304.111 117.04 303.861 116.534C303.614 116.028 303.491 115.437 303.491 114.761C303.491 114.08 303.614 113.484 303.861 112.976C304.111 112.467 304.458 112.072 304.901 111.791C305.347 111.51 305.866 111.369 306.456 111.369C307.047 111.369 307.564 111.51 308.008 111.791C308.454 112.072 308.8 112.467 309.047 112.976C309.297 113.484 309.422 114.08 309.422 114.761C309.422 115.437 309.297 116.028 309.047 116.534C308.8 117.04 308.454 117.433 308.008 117.714C307.564 117.996 307.047 118.136 306.456 118.136ZM306.456 117.233C306.905 117.233 307.275 117.118 307.564 116.888C307.854 116.658 308.069 116.355 308.208 115.98C308.347 115.605 308.417 115.199 308.417 114.761C308.417 114.324 308.347 113.916 308.208 113.538C308.069 113.161 307.854 112.855 307.564 112.622C307.275 112.389 306.905 112.273 306.456 112.273C306.008 112.273 305.638 112.389 305.349 112.622C305.059 112.855 304.844 113.161 304.705 113.538C304.566 113.916 304.496 114.324 304.496 114.761C304.496 115.199 304.566 115.605 304.705 115.98C304.844 116.355 305.059 116.658 305.349 116.888C305.638 117.118 306.008 117.233 306.456 117.233ZM312.218 118L310.224 111.455H311.28L312.695 116.466H312.763L314.161 111.455H315.235L316.616 116.449H316.684L318.099 111.455H319.155L317.161 118H316.172L314.741 112.972H314.638L313.206 118H312.218ZM325.121 112.92L324.218 113.176C324.161 113.026 324.077 112.879 323.966 112.737C323.858 112.592 323.711 112.473 323.523 112.379C323.336 112.286 323.096 112.239 322.803 112.239C322.403 112.239 322.069 112.331 321.802 112.516C321.537 112.697 321.405 112.929 321.405 113.21C321.405 113.46 321.496 113.658 321.678 113.803C321.86 113.947 322.144 114.068 322.53 114.165L323.502 114.403C324.087 114.545 324.523 114.763 324.81 115.055C325.097 115.345 325.241 115.719 325.241 116.176C325.241 116.551 325.133 116.886 324.917 117.182C324.704 117.477 324.405 117.71 324.022 117.881C323.638 118.051 323.192 118.136 322.684 118.136C322.016 118.136 321.464 117.991 321.026 117.702C320.589 117.412 320.312 116.989 320.195 116.432L321.15 116.193C321.241 116.545 321.412 116.81 321.665 116.986C321.921 117.162 322.255 117.25 322.667 117.25C323.135 117.25 323.508 117.151 323.783 116.952C324.062 116.75 324.201 116.509 324.201 116.227C324.201 116 324.121 115.81 323.962 115.656C323.803 115.5 323.559 115.384 323.229 115.307L322.138 115.051C321.539 114.909 321.099 114.689 320.817 114.391C320.539 114.089 320.4 113.713 320.4 113.261C320.4 112.892 320.503 112.565 320.711 112.281C320.921 111.997 321.206 111.774 321.567 111.612C321.931 111.45 322.343 111.369 322.803 111.369C323.451 111.369 323.959 111.511 324.329 111.795C324.701 112.08 324.965 112.455 325.121 112.92Z" fill="#A2A2A2"/>
<path d="M323.571 138.903V133.649C323.571 131.606 322 130 320 130H278.571C276.571 130 275 131.606 275 133.649V161.819C275 163.278 275.857 164.592 277.143 165.176V165.467V166.927H278.571H280H281.429H282.857H284.286H285.714H287.143V165.467H288.714V166.927H290.143H297.429H298.857V165.467H301.071V165.54V167H302.5H305.429H306.857V165.54V165.467H319.929C321.929 165.467 323.5 163.862 323.5 161.819H323.571H325V160.359V152.915V151.456H323.571V147.734H325V146.274V140.363V138.903H323.571ZM290.143 165.467V164.008V159.556H297.429V164.008V165.467H290.143ZM305.429 165.54H302.5V165.467V164.008V159.556H305.429V164.008V165.54ZM323.571 160.359H322.071H314.143V152.915H322.143H323.571V160.359ZM322.143 151.456H314.143H312.714V152.915V160.359V161.819H314.143H322.071C322.071 162.986 321.143 164.008 319.929 164.008H306.857V159.556V158.097H305.429H302.5H301.071V159.556V164.008H298.857V159.556V158.097H297.429H290.143H288.714V159.556V164.008H285.714V165.467H284.286V164.008H282.857V165.467H281.429V164.008H280V165.467H278.571V164.008C277.429 164.008 276.429 163.059 276.429 161.819V133.649C276.429 132.481 277.357 131.46 278.571 131.46H320C321.143 131.46 322.143 132.408 322.143 133.649V138.903H315.571H314.143V140.363V146.274V147.734H315.571H322.143V151.456ZM323.571 146.274H322.143H315.571V140.363H322.143H323.571V146.274Z" fill="#CCCCCC"/>
<path d="M286.643 154.156C287.037 154.156 287.357 153.829 287.357 153.426C287.357 153.023 287.037 152.696 286.643 152.696C286.249 152.696 285.929 153.023 285.929 153.426C285.929 153.829 286.249 154.156 286.643 154.156Z" fill="#CCCCCC"/>
<path d="M281.428 140.801H278.571V142.99H281.428V140.801Z" fill="#CCCCCC"/>
<path d="M281.428 154.813H280V153.28H281.428V151.821H280V150.288H281.428V148.828H280V147.369H281.428V145.909H278.571V156.345H281.428V154.813Z" fill="#CCCCCC"/>
<path d="M280.071 161.819C280.86 161.819 281.5 161.165 281.5 160.359C281.5 159.553 280.86 158.899 280.071 158.899C279.282 158.899 278.643 159.553 278.643 160.359C278.643 161.165 279.282 161.819 280.071 161.819Z" fill="#CCCCCC"/>
<path d="M280.071 133.722C279.286 133.722 278.643 134.379 278.643 135.181C278.643 135.984 279.286 136.641 280.071 136.641C280.857 136.641 281.5 135.911 281.5 135.181C281.5 134.379 280.857 133.722 280.071 133.722Z" fill="#CCCCCC"/>
<path d="M299.928 132.919H298.5V134.379H299.928V132.919Z" fill="#CCCCCC"/>
<path d="M299.928 135.838H298.5V137.298H299.928V135.838Z" fill="#CCCCCC"/>
<path d="M297.072 132.919H295.643V134.379H297.072V132.919Z" fill="#CCCCCC"/>
<path d="M285.643 132.919H284.214V134.379H285.643V132.919Z" fill="#CCCCCC"/>
<path d="M285.643 135.838H284.214V137.298H285.643V135.838Z" fill="#CCCCCC"/>
<path d="M286.571 140.801H283.714V142.333H285.143V143.793H283.714V145.325H285.143V146.785H283.714V148.172H286.571V140.801Z" fill="#CCCCCC"/>
<path d="M283.714 156.345H289.5V150.434H283.714V156.345ZM285.143 151.893H288.071V154.886H285.143V151.893Z" fill="#CCCCCC"/>
<path d="M288.5 135.838H287.072V137.298H288.5V135.838Z" fill="#CCCCCC"/>
<path d="M288.5 132.919H287.072V134.379H288.5V132.919Z" fill="#CCCCCC"/>
<path d="M291.357 135.838H289.928V137.298H291.357V135.838Z" fill="#CCCCCC"/>
<path d="M291.357 132.919H289.928V134.379H291.357V132.919Z" fill="#CCCCCC"/>
<path d="M294.214 135.838H292.786V137.298H294.214V135.838Z" fill="#CCCCCC"/>
<path d="M294.214 132.919H292.786V134.379H294.214V132.919Z" fill="#CCCCCC"/>
<path d="M297.072 135.838H295.643V137.298H297.072V135.838Z" fill="#CCCCCC"/>
<path d="M296 162.548H294.572V164.008H296V162.548Z" fill="#CCCCCC"/>
<path d="M297.5 140.801H296.929L296.5 141.239L295.071 142.698L294.643 143.136V143.72V148.901V150.361H296.071H302.571H304V148.901V142.26V140.801H302.571H297.5ZM302.571 148.901H296.071V143.72L297.5 142.26H302.571V148.901Z" fill="#CCCCCC"/>
<path d="M302.786 135.838H301.357V137.298H302.786V135.838Z" fill="#CCCCCC"/>
<path d="M302.786 132.919H301.357V134.379H302.786V132.919Z" fill="#CCCCCC"/>
<path d="M305.643 135.838H304.214V137.298H305.643V135.838Z" fill="#CCCCCC"/>
<path d="M305.643 132.919H304.214V134.379H305.643V132.919Z" fill="#CCCCCC"/>
<path d="M309.786 161.819C310.575 161.819 311.214 161.165 311.214 160.359C311.214 159.553 310.575 158.899 309.786 158.899C308.997 158.899 308.357 159.553 308.357 160.359C308.357 161.165 308.997 161.819 309.786 161.819Z" fill="#CCCCCC"/>
<path d="M309.786 133.722C309 133.722 308.357 134.379 308.357 135.181C308.357 135.984 309 136.641 309.786 136.641C310.571 136.641 311.214 135.911 311.214 135.181C311.214 134.379 310.571 133.722 309.786 133.722Z" fill="#CCCCCC"/>
<path d="M318.929 144.085L320.214 144.669V143.939L319.643 143.428V143.209L320.214 142.698V141.968L318.929 142.552V144.085Z" fill="#CCCCCC"/>
<path d="M318.214 157.44L319.5 158.024V157.294L318.928 156.783V156.491L319.5 156.053V155.323L318.214 155.907V157.44Z" fill="#CCCCCC"/>
<path d="M258.671 185V174.818H262.112C262.907 174.818 263.56 174.954 264.071 175.226C264.581 175.494 264.959 175.864 265.204 176.335C265.449 176.805 265.572 177.34 265.572 177.94C265.572 178.54 265.449 179.072 265.204 179.536C264.959 180 264.583 180.365 264.076 180.63C263.568 180.892 262.92 181.023 262.132 181.023H259.348V179.909H262.092C262.635 179.909 263.073 179.83 263.404 179.67C263.739 179.511 263.981 179.286 264.13 178.994C264.283 178.699 264.359 178.348 264.359 177.94C264.359 177.533 264.283 177.176 264.13 176.871C263.978 176.567 263.734 176.331 263.399 176.165C263.065 175.996 262.622 175.912 262.072 175.912H259.904V185H258.671ZM263.464 180.426L265.97 185H264.538L262.072 180.426H263.464ZM269.715 185.179C269.231 185.179 268.792 185.088 268.397 184.906C268.003 184.72 267.689 184.453 267.457 184.105C267.225 183.754 267.109 183.33 267.109 182.832C267.109 182.395 267.196 182.04 267.368 181.768C267.54 181.493 267.771 181.278 268.059 181.122C268.347 180.966 268.666 180.85 269.014 180.774C269.365 180.695 269.718 180.632 270.073 180.585C270.537 180.526 270.913 180.481 271.201 180.451C271.493 180.418 271.705 180.363 271.837 180.287C271.973 180.211 272.041 180.078 272.041 179.889V179.849C272.041 179.359 271.907 178.978 271.639 178.706C271.373 178.434 270.971 178.298 270.43 178.298C269.87 178.298 269.431 178.421 269.113 178.666C268.795 178.911 268.571 179.173 268.442 179.452L267.328 179.054C267.527 178.59 267.792 178.229 268.124 177.97C268.458 177.708 268.823 177.526 269.217 177.423C269.615 177.317 270.006 177.264 270.391 177.264C270.636 177.264 270.918 177.294 271.236 177.354C271.557 177.41 271.867 177.528 272.166 177.707C272.467 177.886 272.717 178.156 272.916 178.517C273.115 178.878 273.215 179.362 273.215 179.969V185H272.041V183.966H271.982C271.902 184.132 271.77 184.309 271.584 184.498C271.398 184.687 271.151 184.848 270.843 184.98C270.535 185.113 270.159 185.179 269.715 185.179ZM269.894 184.125C270.358 184.125 270.749 184.034 271.067 183.852C271.388 183.669 271.63 183.434 271.793 183.146C271.958 182.857 272.041 182.554 272.041 182.236V181.162C271.992 181.222 271.882 181.276 271.713 181.326C271.547 181.372 271.355 181.414 271.136 181.45C270.921 181.483 270.711 181.513 270.505 181.54C270.303 181.563 270.139 181.583 270.013 181.599C269.708 181.639 269.423 181.704 269.158 181.793C268.896 181.879 268.684 182.01 268.521 182.186C268.362 182.358 268.283 182.594 268.283 182.892C268.283 183.3 268.434 183.608 268.735 183.817C269.04 184.022 269.426 184.125 269.894 184.125ZM280.765 179.074L279.711 179.372C279.645 179.196 279.547 179.026 279.418 178.86C279.292 178.691 279.12 178.552 278.901 178.442C278.682 178.333 278.402 178.278 278.061 178.278C277.593 178.278 277.204 178.386 276.892 178.602C276.584 178.814 276.43 179.084 276.43 179.412C276.43 179.704 276.536 179.934 276.748 180.103C276.96 180.272 277.292 180.413 277.742 180.526L278.876 180.804C279.559 180.97 280.068 181.223 280.402 181.565C280.737 181.903 280.904 182.339 280.904 182.872C280.904 183.31 280.778 183.701 280.527 184.045C280.278 184.39 279.93 184.662 279.483 184.861C279.035 185.06 278.515 185.159 277.921 185.159C277.143 185.159 276.498 184.99 275.987 184.652C275.477 184.314 275.154 183.82 275.018 183.17L276.132 182.892C276.238 183.303 276.438 183.611 276.733 183.817C277.032 184.022 277.421 184.125 277.902 184.125C278.448 184.125 278.883 184.009 279.204 183.777C279.529 183.542 279.691 183.26 279.691 182.932C279.691 182.667 279.599 182.445 279.413 182.266C279.227 182.083 278.942 181.947 278.558 181.858L277.285 181.56C276.586 181.394 276.072 181.137 275.744 180.789C275.419 180.438 275.257 179.999 275.257 179.472C275.257 179.041 275.378 178.66 275.62 178.328C275.865 177.997 276.198 177.737 276.619 177.548C277.043 177.359 277.524 177.264 278.061 177.264C278.816 177.264 279.41 177.43 279.84 177.761C280.275 178.093 280.583 178.53 280.765 179.074ZM282.671 187.864V177.364H283.804V178.577H283.943C284.029 178.444 284.149 178.275 284.301 178.07C284.457 177.861 284.679 177.675 284.967 177.513C285.259 177.347 285.653 177.264 286.151 177.264C286.794 177.264 287.36 177.425 287.851 177.746C288.341 178.068 288.724 178.524 288.999 179.114C289.274 179.704 289.412 180.4 289.412 181.202C289.412 182.01 289.274 182.711 288.999 183.305C288.724 183.895 288.343 184.352 287.856 184.677C287.369 184.998 286.807 185.159 286.171 185.159C285.68 185.159 285.287 185.078 284.992 184.915C284.697 184.75 284.47 184.562 284.311 184.354C284.152 184.142 284.029 183.966 283.943 183.827H283.844V187.864H282.671ZM283.824 181.182C283.824 181.759 283.908 182.267 284.078 182.708C284.247 183.146 284.493 183.489 284.818 183.737C285.143 183.982 285.541 184.105 286.011 184.105C286.502 184.105 286.911 183.976 287.239 183.717C287.571 183.455 287.819 183.104 287.985 182.663C288.154 182.219 288.239 181.725 288.239 181.182C288.239 180.645 288.156 180.161 287.99 179.73C287.828 179.296 287.581 178.953 287.249 178.701C286.921 178.446 286.509 178.318 286.011 178.318C285.534 178.318 285.133 178.439 284.808 178.681C284.484 178.92 284.238 179.254 284.073 179.685C283.907 180.113 283.824 180.612 283.824 181.182ZM291.361 185V174.818H292.534V178.577H292.634C292.72 178.444 292.839 178.275 292.992 178.07C293.147 177.861 293.369 177.675 293.658 177.513C293.949 177.347 294.344 177.264 294.841 177.264C295.484 177.264 296.051 177.425 296.541 177.746C297.032 178.068 297.415 178.524 297.69 179.114C297.965 179.704 298.102 180.4 298.102 181.202C298.102 182.01 297.965 182.711 297.69 183.305C297.415 183.895 297.033 184.352 296.546 184.677C296.059 184.998 295.497 185.159 294.861 185.159C294.37 185.159 293.978 185.078 293.683 184.915C293.388 184.75 293.161 184.562 293.002 184.354C292.842 184.142 292.72 183.966 292.634 183.827H292.494V185H291.361ZM292.514 181.182C292.514 181.759 292.599 182.267 292.768 182.708C292.937 183.146 293.184 183.489 293.509 183.737C293.833 183.982 294.231 184.105 294.702 184.105C295.192 184.105 295.602 183.976 295.93 183.717C296.261 183.455 296.51 183.104 296.676 182.663C296.845 182.219 296.929 181.725 296.929 181.182C296.929 180.645 296.846 180.161 296.68 179.73C296.518 179.296 296.271 178.953 295.94 178.701C295.612 178.446 295.199 178.318 294.702 178.318C294.225 178.318 293.823 178.439 293.499 178.681C293.174 178.92 292.929 179.254 292.763 179.685C292.597 180.113 292.514 180.612 292.514 181.182ZM303.099 185.159C302.363 185.159 301.728 184.997 301.195 184.672C300.664 184.344 300.255 183.886 299.967 183.3C299.682 182.71 299.539 182.024 299.539 181.241C299.539 180.459 299.682 179.77 299.967 179.173C300.255 178.573 300.656 178.106 301.17 177.771C301.687 177.433 302.29 177.264 302.979 177.264C303.377 177.264 303.77 177.33 304.158 177.463C304.546 177.596 304.899 177.811 305.217 178.109C305.535 178.404 305.788 178.795 305.977 179.283C306.166 179.77 306.261 180.37 306.261 181.082V181.58H300.374V180.565H305.068C305.068 180.134 304.981 179.75 304.809 179.412C304.64 179.074 304.398 178.807 304.083 178.612C303.772 178.416 303.404 178.318 302.979 178.318C302.512 178.318 302.108 178.434 301.766 178.666C301.428 178.895 301.168 179.193 300.986 179.561C300.804 179.929 300.712 180.323 300.712 180.744V181.42C300.712 181.997 300.812 182.486 301.011 182.887C301.213 183.285 301.493 183.588 301.851 183.797C302.209 184.002 302.625 184.105 303.099 184.105C303.407 184.105 303.685 184.062 303.934 183.976C304.186 183.886 304.403 183.754 304.585 183.578C304.768 183.399 304.908 183.177 305.008 182.912L306.141 183.23C306.022 183.615 305.822 183.953 305.54 184.244C305.258 184.533 304.91 184.758 304.496 184.92C304.082 185.08 303.616 185.159 303.099 185.159ZM308.046 185V177.364H309.179V178.517H309.259C309.398 178.139 309.65 177.833 310.014 177.597C310.379 177.362 310.79 177.244 311.247 177.244C311.333 177.244 311.441 177.246 311.57 177.249C311.7 177.253 311.797 177.258 311.864 177.264V178.457C311.824 178.447 311.733 178.433 311.59 178.413C311.451 178.389 311.304 178.378 311.148 178.378C310.777 178.378 310.445 178.456 310.153 178.612C309.865 178.764 309.636 178.976 309.467 179.248C309.302 179.516 309.219 179.823 309.219 180.168V185H308.046ZM313.255 185V177.364H314.388V178.517H314.468C314.607 178.139 314.859 177.833 315.223 177.597C315.588 177.362 315.999 177.244 316.456 177.244C316.542 177.244 316.65 177.246 316.779 177.249C316.909 177.253 317.006 177.258 317.073 177.264V178.457C317.033 178.447 316.942 178.433 316.799 178.413C316.66 178.389 316.513 178.378 316.357 178.378C315.986 178.378 315.654 178.456 315.362 178.612C315.074 178.764 314.845 178.976 314.676 179.248C314.511 179.516 314.428 179.823 314.428 180.168V185H313.255ZM319.452 187.864C319.253 187.864 319.075 187.847 318.92 187.814C318.764 187.784 318.656 187.754 318.597 187.724L318.895 186.69C319.18 186.763 319.432 186.79 319.65 186.77C319.869 186.75 320.063 186.652 320.232 186.477C320.405 186.304 320.562 186.024 320.704 185.636L320.923 185.04L318.099 177.364H319.372L321.48 183.449H321.56L323.668 177.364H324.94L321.699 186.114C321.553 186.508 321.372 186.835 321.157 187.093C320.941 187.355 320.691 187.549 320.406 187.675C320.124 187.801 319.806 187.864 319.452 187.864ZM330.585 185V174.818H334.026C334.825 174.818 335.478 174.962 335.985 175.251C336.495 175.536 336.873 175.922 337.118 176.409C337.363 176.896 337.486 177.44 337.486 178.04C337.486 178.64 337.363 179.185 337.118 179.675C336.876 180.166 336.502 180.557 335.995 180.849C335.487 181.137 334.838 181.281 334.046 181.281H331.58V180.188H334.006C334.553 180.188 334.992 180.093 335.323 179.904C335.655 179.715 335.895 179.46 336.044 179.138C336.197 178.814 336.273 178.447 336.273 178.04C336.273 177.632 336.197 177.268 336.044 176.946C335.895 176.625 335.653 176.373 335.318 176.19C334.984 176.005 334.54 175.912 333.986 175.912H331.818V185H330.585ZM339.313 185V177.364H340.486V185H339.313ZM339.91 176.091C339.681 176.091 339.484 176.013 339.318 175.857C339.156 175.701 339.074 175.514 339.074 175.295C339.074 175.077 339.156 174.889 339.318 174.734C339.484 174.578 339.681 174.5 339.91 174.5C340.138 174.5 340.334 174.578 340.496 174.734C340.662 174.889 340.745 175.077 340.745 175.295C340.745 175.514 340.662 175.701 340.496 175.857C340.334 176.013 340.138 176.091 339.91 176.091Z" fill="#CCCCCC"/>
<path d="M261.954 191.273H263.011V197.051C263.011 197.648 262.87 198.18 262.589 198.649C262.311 199.115 261.917 199.483 261.409 199.753C260.9 200.02 260.303 200.153 259.619 200.153C258.934 200.153 258.338 200.02 257.829 199.753C257.32 199.483 256.926 199.115 256.644 198.649C256.366 198.18 256.227 197.648 256.227 197.051V191.273H257.284V196.966C257.284 197.392 257.377 197.771 257.565 198.104C257.752 198.433 258.019 198.693 258.366 198.884C258.715 199.071 259.133 199.165 259.619 199.165C260.105 199.165 260.522 199.071 260.872 198.884C261.221 198.693 261.488 198.433 261.673 198.104C261.86 197.771 261.954 197.392 261.954 196.966V191.273ZM265.121 200V191.273H266.127V194.494H266.212C266.286 194.381 266.388 194.236 266.519 194.06C266.653 193.881 266.843 193.722 267.09 193.582C267.34 193.44 267.678 193.369 268.104 193.369C268.655 193.369 269.141 193.507 269.562 193.783C269.982 194.058 270.31 194.449 270.546 194.955C270.782 195.46 270.9 196.057 270.9 196.744C270.9 197.438 270.782 198.038 270.546 198.547C270.31 199.053 269.983 199.445 269.566 199.723C269.148 199.999 268.667 200.136 268.121 200.136C267.701 200.136 267.364 200.067 267.111 199.928C266.858 199.786 266.664 199.625 266.528 199.446C266.391 199.264 266.286 199.114 266.212 198.994H266.093V200H265.121ZM266.11 196.727C266.11 197.222 266.182 197.658 266.327 198.036C266.472 198.411 266.684 198.705 266.962 198.918C267.241 199.128 267.581 199.233 267.985 199.233C268.405 199.233 268.756 199.122 269.037 198.901C269.322 198.676 269.535 198.375 269.677 197.997C269.822 197.616 269.894 197.193 269.894 196.727C269.894 196.267 269.823 195.852 269.681 195.483C269.542 195.111 269.33 194.817 269.046 194.601C268.765 194.382 268.411 194.273 267.985 194.273C267.576 194.273 267.232 194.376 266.954 194.584C266.675 194.788 266.465 195.075 266.323 195.445C266.181 195.811 266.11 196.239 266.11 196.727ZM276.563 197.324V193.455H277.569V200H276.563V198.892H276.495C276.341 199.224 276.103 199.507 275.779 199.74C275.455 199.97 275.046 200.085 274.552 200.085C274.143 200.085 273.779 199.996 273.461 199.817C273.143 199.635 272.893 199.362 272.711 198.999C272.529 198.632 272.438 198.17 272.438 197.614V193.455H273.444V197.545C273.444 198.023 273.577 198.403 273.844 198.688C274.114 198.972 274.458 199.114 274.876 199.114C275.126 199.114 275.38 199.05 275.638 198.922C275.9 198.794 276.118 198.598 276.295 198.334C276.474 198.07 276.563 197.733 276.563 197.324ZM280.416 196.062V200H279.411V193.455H280.382V194.477H280.468C280.621 194.145 280.854 193.878 281.166 193.676C281.479 193.472 281.882 193.369 282.377 193.369C282.82 193.369 283.208 193.46 283.54 193.642C283.872 193.821 284.131 194.094 284.316 194.46C284.5 194.824 284.593 195.284 284.593 195.841V200H283.587V195.909C283.587 195.395 283.453 194.994 283.186 194.707C282.919 194.418 282.553 194.273 282.087 194.273C281.766 194.273 281.479 194.342 281.226 194.482C280.976 194.621 280.779 194.824 280.634 195.091C280.489 195.358 280.416 195.682 280.416 196.062ZM289.277 193.455V194.307H285.885V193.455H289.277ZM286.873 191.886H287.879V198.125C287.879 198.409 287.92 198.622 288.003 198.764C288.088 198.903 288.196 198.997 288.327 199.045C288.46 199.091 288.601 199.114 288.748 199.114C288.859 199.114 288.95 199.108 289.021 199.097C289.092 199.082 289.149 199.071 289.192 199.062L289.396 199.966C289.328 199.991 289.233 200.017 289.111 200.043C288.988 200.071 288.834 200.085 288.646 200.085C288.362 200.085 288.084 200.024 287.811 199.902C287.541 199.78 287.317 199.594 287.138 199.344C286.961 199.094 286.873 198.778 286.873 198.398V191.886ZM294.915 197.324V193.455H295.92V200H294.915V198.892H294.846C294.693 199.224 294.454 199.507 294.131 199.74C293.807 199.97 293.398 200.085 292.903 200.085C292.494 200.085 292.131 199.996 291.812 199.817C291.494 199.635 291.244 199.362 291.062 198.999C290.881 198.632 290.79 198.17 290.79 197.614V193.455H291.795V197.545C291.795 198.023 291.929 198.403 292.196 198.688C292.466 198.972 292.809 199.114 293.227 199.114C293.477 199.114 293.731 199.05 293.99 198.922C294.251 198.794 294.47 198.598 294.646 198.334C294.825 198.07 294.915 197.733 294.915 197.324ZM304.222 190.864L301.41 201.312H300.49L303.302 190.864H304.222ZM308.926 200V191.273H314.193V192.21H309.983V195.159H313.92V196.097H309.983V199.062H314.261V200H308.926ZM316.967 191.273V200H315.961V191.273H316.967ZM320.735 200.153C320.32 200.153 319.944 200.075 319.606 199.919C319.268 199.76 318.999 199.531 318.801 199.233C318.602 198.932 318.502 198.568 318.502 198.142C318.502 197.767 318.576 197.463 318.724 197.23C318.872 196.994 319.069 196.81 319.316 196.676C319.563 196.543 319.836 196.443 320.134 196.378C320.436 196.31 320.738 196.256 321.042 196.216C321.44 196.165 321.762 196.126 322.009 196.101C322.259 196.072 322.441 196.026 322.555 195.96C322.671 195.895 322.73 195.781 322.73 195.619V195.585C322.73 195.165 322.615 194.838 322.384 194.605C322.157 194.372 321.812 194.256 321.349 194.256C320.869 194.256 320.492 194.361 320.22 194.571C319.947 194.781 319.755 195.006 319.644 195.244L318.69 194.903C318.86 194.506 319.088 194.196 319.372 193.974C319.659 193.75 319.971 193.594 320.309 193.506C320.65 193.415 320.985 193.369 321.315 193.369C321.525 193.369 321.767 193.395 322.039 193.446C322.315 193.494 322.58 193.595 322.836 193.749C323.095 193.902 323.309 194.134 323.48 194.443C323.65 194.753 323.735 195.168 323.735 195.688V200H322.73V199.114H322.678C322.61 199.256 322.497 199.408 322.338 199.57C322.178 199.732 321.967 199.869 321.703 199.983C321.438 200.097 321.116 200.153 320.735 200.153ZM320.889 199.25C321.286 199.25 321.622 199.172 321.894 199.016C322.17 198.859 322.377 198.658 322.517 198.411C322.659 198.163 322.73 197.903 322.73 197.631V196.71C322.687 196.761 322.593 196.808 322.448 196.851C322.306 196.891 322.142 196.926 321.954 196.957C321.769 196.986 321.589 197.011 321.413 197.034C321.24 197.054 321.099 197.071 320.991 197.085C320.73 197.119 320.485 197.175 320.258 197.251C320.034 197.325 319.852 197.437 319.713 197.588C319.576 197.736 319.508 197.937 319.508 198.193C319.508 198.543 319.637 198.807 319.896 198.986C320.157 199.162 320.488 199.25 320.889 199.25ZM330.207 194.92L329.304 195.176C329.247 195.026 329.163 194.879 329.052 194.737C328.944 194.592 328.797 194.473 328.609 194.379C328.422 194.286 328.182 194.239 327.889 194.239C327.488 194.239 327.155 194.331 326.888 194.516C326.623 194.697 326.491 194.929 326.491 195.21C326.491 195.46 326.582 195.658 326.764 195.803C326.946 195.947 327.23 196.068 327.616 196.165L328.588 196.403C329.173 196.545 329.609 196.763 329.896 197.055C330.183 197.345 330.327 197.719 330.327 198.176C330.327 198.551 330.219 198.886 330.003 199.182C329.79 199.477 329.491 199.71 329.108 199.881C328.724 200.051 328.278 200.136 327.77 200.136C327.102 200.136 326.55 199.991 326.112 199.702C325.675 199.412 325.398 198.989 325.281 198.432L326.236 198.193C326.327 198.545 326.498 198.81 326.751 198.986C327.007 199.162 327.341 199.25 327.753 199.25C328.221 199.25 328.594 199.151 328.869 198.952C329.148 198.75 329.287 198.509 329.287 198.227C329.287 198 329.207 197.81 329.048 197.656C328.889 197.5 328.645 197.384 328.315 197.307L327.224 197.051C326.625 196.909 326.184 196.689 325.903 196.391C325.625 196.089 325.486 195.713 325.486 195.261C325.486 194.892 325.589 194.565 325.797 194.281C326.007 193.997 326.292 193.774 326.653 193.612C327.017 193.45 327.429 193.369 327.889 193.369C328.537 193.369 329.045 193.511 329.415 193.795C329.787 194.08 330.051 194.455 330.207 194.92ZM334.687 193.455V194.307H331.295V193.455H334.687ZM332.284 191.886H333.289V198.125C333.289 198.409 333.33 198.622 333.413 198.764C333.498 198.903 333.606 198.997 333.737 199.045C333.87 199.091 334.011 199.114 334.159 199.114C334.269 199.114 334.36 199.108 334.431 199.097C334.502 199.082 334.559 199.071 334.602 199.062L334.806 199.966C334.738 199.991 334.643 200.017 334.521 200.043C334.399 200.071 334.244 200.085 334.056 200.085C333.772 200.085 333.494 200.024 333.221 199.902C332.951 199.78 332.727 199.594 332.548 199.344C332.372 199.094 332.284 198.778 332.284 198.398V191.886ZM336.2 200V193.455H337.205V200H336.2ZM336.711 192.364C336.515 192.364 336.346 192.297 336.204 192.163C336.065 192.03 335.995 191.869 335.995 191.682C335.995 191.494 336.065 191.334 336.204 191.2C336.346 191.067 336.515 191 336.711 191C336.907 191 337.075 191.067 337.214 191.2C337.356 191.334 337.427 191.494 337.427 191.682C337.427 191.869 337.356 192.03 337.214 192.163C337.075 192.297 336.907 192.364 336.711 192.364ZM341.706 200.136C341.093 200.136 340.564 199.991 340.121 199.702C339.678 199.412 339.337 199.013 339.099 198.504C338.86 197.996 338.741 197.415 338.741 196.761C338.741 196.097 338.863 195.51 339.107 195.001C339.354 194.49 339.698 194.091 340.138 193.804C340.581 193.514 341.099 193.369 341.689 193.369C342.15 193.369 342.564 193.455 342.934 193.625C343.303 193.795 343.606 194.034 343.841 194.341C344.077 194.648 344.224 195.006 344.28 195.415H343.275C343.198 195.116 343.028 194.852 342.763 194.622C342.502 194.389 342.15 194.273 341.706 194.273C341.314 194.273 340.971 194.375 340.675 194.58C340.383 194.781 340.154 195.067 339.989 195.436C339.827 195.803 339.746 196.233 339.746 196.727C339.746 197.233 339.826 197.673 339.985 198.048C340.147 198.423 340.374 198.714 340.667 198.922C340.962 199.129 341.309 199.233 341.706 199.233C341.968 199.233 342.205 199.188 342.418 199.097C342.631 199.006 342.812 198.875 342.959 198.705C343.107 198.534 343.212 198.33 343.275 198.091H344.28C344.224 198.477 344.083 198.825 343.858 199.135C343.637 199.442 343.343 199.686 342.976 199.868C342.613 200.047 342.189 200.136 341.706 200.136Z" fill="#A2A2A2"/>
<path fill-rule="evenodd" clip-rule="evenodd" d="M441.505 92.2823C439.675 92.2823 438.191 93.8084 438.191 95.6909V118.501C438.191 120.383 439.675 121.909 441.505 121.909H478.495C480.325 121.909 481.809 120.383 481.809 118.501V95.6909C481.809 93.8084 480.325 92.2823 478.495 92.2823H472.947H447.029H441.505ZM435 95.6909C435 91.9956 437.913 89 441.505 89H447.029H472.947H478.495C482.087 89 485 91.9956 485 95.6909V118.501C485 122.196 482.087 125.192 478.495 125.192H461.596V130.718H471.256C472.137 130.718 472.851 131.452 472.851 132.359C472.851 133.265 472.137 134 471.256 134H448.744C447.863 134 447.149 133.265 447.149 132.359C447.149 131.452 447.863 130.718 448.744 130.718H458.404V125.192H441.505C437.913 125.192 435 122.196 435 118.501V95.6909Z" fill="#CCCCCC"/>
<path fill-rule="evenodd" clip-rule="evenodd" d="M460.798 95.5666C460.304 95.2734 459.696 95.2734 459.202 95.5666L450.907 100.492C450.414 100.785 450.11 101.327 450.11 101.913V111.764C450.11 112.351 450.414 112.893 450.907 113.186L459.202 118.111C459.696 118.404 460.304 118.404 460.798 118.111L469.093 113.186C469.586 112.893 469.89 112.351 469.89 111.764V101.913C469.89 101.327 469.586 100.785 469.093 100.492L460.798 95.5666ZM453.301 104.73V110.817L460 114.795L466.699 110.817V104.732L460.798 108.26C460.304 108.553 459.696 108.553 459.202 108.26L453.301 104.73ZM465.084 101.902L460 98.8829L454.917 101.901L460 104.944L465.084 101.902Z" fill="#CCCCCC"/>
<path d="M443.986 141.818L447.008 150.389H447.128L450.15 141.818H451.443L447.704 152H446.432L442.693 141.818H443.986ZM453.029 141.818H454.5L457.961 150.27H458.08L461.54 141.818H463.012V152H461.858V144.264H461.759L458.577 152H457.464L454.282 144.264H454.182V152H453.029V141.818ZM469.242 152V151.105L472.603 147.426C472.998 146.995 473.322 146.621 473.578 146.303C473.833 145.981 474.022 145.679 474.144 145.398C474.27 145.113 474.333 144.814 474.333 144.503C474.333 144.145 474.247 143.835 474.075 143.573C473.906 143.311 473.674 143.109 473.379 142.967C473.084 142.824 472.752 142.753 472.384 142.753C471.993 142.753 471.652 142.834 471.36 142.996C471.072 143.156 470.848 143.379 470.689 143.668C470.533 143.956 470.456 144.294 470.456 144.682H469.282C469.282 144.085 469.42 143.562 469.695 143.111C469.97 142.66 470.344 142.309 470.818 142.057C471.296 141.805 471.831 141.679 472.424 141.679C473.021 141.679 473.55 141.805 474.01 142.057C474.471 142.309 474.832 142.648 475.094 143.076C475.356 143.504 475.487 143.979 475.487 144.503C475.487 144.877 475.419 145.244 475.283 145.602C475.15 145.956 474.918 146.352 474.587 146.79C474.259 147.224 473.803 147.754 473.22 148.381L470.933 150.827V150.906H475.666V152H469.242Z" fill="#CCCCCC"/>
<path d="M413.048 167L410.662 158.273H411.736L413.56 165.381H413.645L415.503 158.273H416.696L418.554 165.381H418.639L420.463 158.273H421.537L419.151 167H418.06L416.134 160.045H416.065L414.139 167H413.048ZM422.717 167V160.455H423.723V167H422.717ZM423.229 159.364C423.033 159.364 422.864 159.297 422.722 159.163C422.582 159.03 422.513 158.869 422.513 158.682C422.513 158.494 422.582 158.334 422.722 158.2C422.864 158.067 423.033 158 423.229 158C423.425 158 423.592 158.067 423.732 158.2C423.874 158.334 423.945 158.494 423.945 158.682C423.945 158.869 423.874 159.03 423.732 159.163C423.592 159.297 423.425 159.364 423.229 159.364ZM426.571 163.062V167H425.565V160.455H426.537V161.477H426.622C426.775 161.145 427.008 160.878 427.321 160.676C427.633 160.472 428.037 160.369 428.531 160.369C428.974 160.369 429.362 160.46 429.694 160.642C430.027 160.821 430.285 161.094 430.47 161.46C430.654 161.824 430.747 162.284 430.747 162.841V167H429.741V162.909C429.741 162.395 429.608 161.994 429.341 161.707C429.074 161.418 428.707 161.273 428.241 161.273C427.92 161.273 427.633 161.342 427.38 161.482C427.13 161.621 426.933 161.824 426.788 162.091C426.643 162.358 426.571 162.682 426.571 163.062ZM435.056 167.136C434.511 167.136 434.029 166.999 433.612 166.723C433.194 166.445 432.867 166.053 432.631 165.547C432.396 165.038 432.278 164.438 432.278 163.744C432.278 163.057 432.396 162.46 432.631 161.955C432.867 161.449 433.195 161.058 433.616 160.783C434.036 160.507 434.522 160.369 435.073 160.369C435.499 160.369 435.836 160.44 436.083 160.582C436.333 160.722 436.523 160.881 436.654 161.06C436.788 161.236 436.891 161.381 436.965 161.494H437.05V158.273H438.056V167H437.085V165.994H436.965C436.891 166.114 436.786 166.264 436.65 166.446C436.513 166.625 436.319 166.786 436.066 166.928C435.813 167.067 435.477 167.136 435.056 167.136ZM435.192 166.233C435.596 166.233 435.937 166.128 436.215 165.918C436.494 165.705 436.705 165.411 436.85 165.036C436.995 164.658 437.067 164.222 437.067 163.727C437.067 163.239 436.996 162.811 436.854 162.445C436.712 162.075 436.502 161.788 436.224 161.584C435.945 161.376 435.602 161.273 435.192 161.273C434.766 161.273 434.411 161.382 434.127 161.601C433.846 161.817 433.634 162.111 433.492 162.483C433.353 162.852 433.283 163.267 433.283 163.727C433.283 164.193 433.354 164.616 433.496 164.997C433.641 165.375 433.854 165.676 434.136 165.901C434.42 166.122 434.772 166.233 435.192 166.233ZM442.697 167.136C442.106 167.136 441.587 166.996 441.141 166.714C440.698 166.433 440.352 166.04 440.102 165.534C439.854 165.028 439.731 164.437 439.731 163.761C439.731 163.08 439.854 162.484 440.102 161.976C440.352 161.467 440.698 161.072 441.141 160.791C441.587 160.51 442.106 160.369 442.697 160.369C443.288 160.369 443.805 160.51 444.248 160.791C444.694 161.072 445.04 161.467 445.288 161.976C445.538 162.484 445.663 163.08 445.663 163.761C445.663 164.437 445.538 165.028 445.288 165.534C445.04 166.04 444.694 166.433 444.248 166.714C443.805 166.996 443.288 167.136 442.697 167.136ZM442.697 166.233C443.146 166.233 443.515 166.118 443.805 165.888C444.094 165.658 444.309 165.355 444.448 164.98C444.587 164.605 444.657 164.199 444.657 163.761C444.657 163.324 444.587 162.916 444.448 162.538C444.309 162.161 444.094 161.855 443.805 161.622C443.515 161.389 443.146 161.273 442.697 161.273C442.248 161.273 441.879 161.389 441.589 161.622C441.299 161.855 441.085 162.161 440.945 162.538C440.806 162.916 440.737 163.324 440.737 163.761C440.737 164.199 440.806 164.605 440.945 164.98C441.085 165.355 441.299 165.658 441.589 165.888C441.879 166.118 442.248 166.233 442.697 166.233ZM448.458 167L446.464 160.455H447.521L448.935 165.466H449.004L450.401 160.455H451.475L452.856 165.449H452.924L454.339 160.455H455.396L453.401 167H452.413L450.981 161.972H450.879L449.447 167H448.458ZM461.362 161.92L460.458 162.176C460.401 162.026 460.317 161.879 460.207 161.737C460.099 161.592 459.951 161.473 459.763 161.379C459.576 161.286 459.336 161.239 459.043 161.239C458.643 161.239 458.309 161.331 458.042 161.516C457.778 161.697 457.646 161.929 457.646 162.21C457.646 162.46 457.737 162.658 457.918 162.803C458.1 162.947 458.384 163.068 458.771 163.165L459.742 163.403C460.327 163.545 460.763 163.763 461.05 164.055C461.337 164.345 461.481 164.719 461.481 165.176C461.481 165.551 461.373 165.886 461.157 166.182C460.944 166.477 460.646 166.71 460.262 166.881C459.879 167.051 459.433 167.136 458.924 167.136C458.256 167.136 457.704 166.991 457.266 166.702C456.829 166.412 456.552 165.989 456.435 165.432L457.39 165.193C457.481 165.545 457.653 165.81 457.906 165.986C458.161 166.162 458.495 166.25 458.907 166.25C459.376 166.25 459.748 166.151 460.023 165.952C460.302 165.75 460.441 165.509 460.441 165.227C460.441 165 460.362 164.81 460.202 164.656C460.043 164.5 459.799 164.384 459.469 164.307L458.379 164.051C457.779 163.909 457.339 163.689 457.058 163.391C456.779 163.089 456.64 162.713 456.64 162.261C456.64 161.892 456.744 161.565 456.951 161.281C457.161 160.997 457.447 160.774 457.808 160.612C458.171 160.45 458.583 160.369 459.043 160.369C459.691 160.369 460.2 160.511 460.569 160.795C460.941 161.08 461.205 161.455 461.362 161.92ZM469.455 157.864L466.642 168.312H465.722L468.534 157.864H469.455ZM473.681 159.21V158.273H480.227V159.21H477.482V167H476.425V159.21H473.681ZM482.757 167.153C482.342 167.153 481.966 167.075 481.627 166.919C481.289 166.76 481.021 166.531 480.822 166.233C480.623 165.932 480.524 165.568 480.524 165.142C480.524 164.767 480.598 164.463 480.745 164.23C480.893 163.994 481.091 163.81 481.338 163.676C481.585 163.543 481.858 163.443 482.156 163.378C482.457 163.31 482.76 163.256 483.064 163.216C483.461 163.165 483.784 163.126 484.031 163.101C484.281 163.072 484.463 163.026 484.576 162.96C484.693 162.895 484.751 162.781 484.751 162.619V162.585C484.751 162.165 484.636 161.838 484.406 161.605C484.179 161.372 483.833 161.256 483.37 161.256C482.89 161.256 482.514 161.361 482.241 161.571C481.968 161.781 481.777 162.006 481.666 162.244L480.711 161.903C480.882 161.506 481.109 161.196 481.393 160.974C481.68 160.75 481.993 160.594 482.331 160.506C482.672 160.415 483.007 160.369 483.336 160.369C483.547 160.369 483.788 160.395 484.061 160.446C484.336 160.494 484.602 160.595 484.858 160.749C485.116 160.902 485.331 161.134 485.501 161.443C485.672 161.753 485.757 162.168 485.757 162.688V167H484.751V166.114H484.7C484.632 166.256 484.518 166.408 484.359 166.57C484.2 166.732 483.988 166.869 483.724 166.983C483.46 167.097 483.137 167.153 482.757 167.153ZM482.91 166.25C483.308 166.25 483.643 166.172 483.916 166.016C484.191 165.859 484.399 165.658 484.538 165.411C484.68 165.163 484.751 164.903 484.751 164.631V163.71C484.708 163.761 484.615 163.808 484.47 163.851C484.328 163.891 484.163 163.926 483.975 163.957C483.791 163.986 483.61 164.011 483.434 164.034C483.261 164.054 483.12 164.071 483.012 164.085C482.751 164.119 482.507 164.175 482.279 164.251C482.055 164.325 481.873 164.437 481.734 164.588C481.598 164.736 481.529 164.937 481.529 165.193C481.529 165.543 481.659 165.807 481.917 165.986C482.179 166.162 482.51 166.25 482.91 166.25ZM487.592 167V160.455H488.564V161.443H488.632C488.751 161.119 488.967 160.857 489.28 160.655C489.592 160.453 489.945 160.352 490.337 160.352C490.411 160.352 490.503 160.354 490.614 160.357C490.724 160.359 490.808 160.364 490.865 160.369V161.392C490.831 161.384 490.753 161.371 490.631 161.354C490.511 161.334 490.385 161.324 490.251 161.324C489.933 161.324 489.649 161.391 489.399 161.524C489.152 161.655 488.956 161.837 488.811 162.07C488.669 162.3 488.598 162.562 488.598 162.858V167H487.592ZM494.5 169.591C494.014 169.591 493.597 169.528 493.247 169.403C492.898 169.281 492.607 169.119 492.374 168.918C492.143 168.719 491.96 168.506 491.824 168.278L492.625 167.716C492.716 167.835 492.831 167.972 492.97 168.125C493.109 168.281 493.3 168.416 493.541 168.53C493.786 168.646 494.105 168.705 494.5 168.705C495.028 168.705 495.464 168.577 495.808 168.321C496.152 168.065 496.324 167.665 496.324 167.119V165.79H496.239C496.165 165.909 496.06 166.057 495.923 166.233C495.79 166.406 495.597 166.561 495.344 166.697C495.094 166.831 494.756 166.898 494.33 166.898C493.801 166.898 493.327 166.773 492.906 166.523C492.489 166.273 492.158 165.909 491.913 165.432C491.672 164.955 491.551 164.375 491.551 163.693C491.551 163.023 491.669 162.439 491.905 161.942C492.141 161.442 492.469 161.055 492.889 160.783C493.31 160.507 493.795 160.369 494.347 160.369C494.773 160.369 495.111 160.44 495.361 160.582C495.614 160.722 495.807 160.881 495.94 161.06C496.077 161.236 496.182 161.381 496.256 161.494H496.358V160.455H497.33V167.188C497.33 167.75 497.202 168.207 496.946 168.56C496.693 168.915 496.352 169.175 495.923 169.339C495.497 169.507 495.023 169.591 494.5 169.591ZM494.466 165.994C494.869 165.994 495.21 165.902 495.489 165.717C495.767 165.533 495.979 165.267 496.124 164.92C496.268 164.574 496.341 164.159 496.341 163.676C496.341 163.205 496.27 162.788 496.128 162.428C495.986 162.067 495.776 161.784 495.497 161.58C495.219 161.375 494.875 161.273 494.466 161.273C494.04 161.273 493.685 161.381 493.401 161.597C493.119 161.812 492.908 162.102 492.766 162.466C492.626 162.83 492.557 163.233 492.557 163.676C492.557 164.131 492.628 164.533 492.77 164.882C492.915 165.229 493.128 165.501 493.409 165.7C493.693 165.896 494.045 165.994 494.466 165.994ZM501.915 167.136C501.284 167.136 500.74 166.997 500.283 166.719C499.828 166.438 499.477 166.045 499.23 165.543C498.986 165.037 498.864 164.449 498.864 163.778C498.864 163.108 498.986 162.517 499.23 162.006C499.477 161.491 499.821 161.091 500.261 160.804C500.705 160.514 501.222 160.369 501.812 160.369C502.153 160.369 502.49 160.426 502.822 160.54C503.155 160.653 503.457 160.838 503.73 161.094C504.003 161.347 504.22 161.682 504.382 162.099C504.544 162.517 504.625 163.031 504.625 163.642V164.068H499.58V163.199H503.602C503.602 162.83 503.528 162.5 503.381 162.21C503.236 161.92 503.028 161.692 502.759 161.524C502.491 161.357 502.176 161.273 501.812 161.273C501.412 161.273 501.065 161.372 500.773 161.571C500.483 161.767 500.26 162.023 500.104 162.338C499.947 162.653 499.869 162.991 499.869 163.352V163.932C499.869 164.426 499.955 164.845 500.125 165.189C500.298 165.53 500.538 165.79 500.845 165.969C501.152 166.145 501.509 166.233 501.915 166.233C502.179 166.233 502.418 166.196 502.631 166.122C502.847 166.045 503.033 165.932 503.189 165.781C503.345 165.628 503.466 165.437 503.551 165.21L504.523 165.483C504.42 165.812 504.249 166.102 504.007 166.352C503.766 166.599 503.467 166.793 503.112 166.932C502.757 167.068 502.358 167.136 501.915 167.136ZM509.001 160.455V161.307H505.609V160.455H509.001ZM506.598 158.886H507.604V165.125C507.604 165.409 507.645 165.622 507.727 165.764C507.813 165.903 507.92 165.997 508.051 166.045C508.185 166.091 508.325 166.114 508.473 166.114C508.584 166.114 508.675 166.108 508.746 166.097C508.817 166.082 508.874 166.071 508.916 166.062L509.121 166.966C509.053 166.991 508.957 167.017 508.835 167.043C508.713 167.071 508.558 167.085 508.371 167.085C508.087 167.085 507.808 167.024 507.536 166.902C507.266 166.78 507.041 166.594 506.862 166.344C506.686 166.094 506.598 165.778 506.598 165.398V158.886Z" fill="#A2A2A2"/>
<path d="M407.999 78L405.613 69.2727H406.687L408.511 76.3807H408.596L410.454 69.2727H411.647L413.505 76.3807H413.59L415.414 69.2727H416.488L414.102 78H413.011L411.085 71.0455H411.017L409.09 78H407.999ZM417.669 78V71.4545H418.674V78H417.669ZM418.18 70.3636C417.984 70.3636 417.815 70.2969 417.673 70.1634C417.534 70.0298 417.464 69.8693 417.464 69.6818C417.464 69.4943 417.534 69.3338 417.673 69.2003C417.815 69.0668 417.984 69 418.18 69C418.376 69 418.544 69.0668 418.683 69.2003C418.825 69.3338 418.896 69.4943 418.896 69.6818C418.896 69.8693 418.825 70.0298 418.683 70.1634C418.544 70.2969 418.376 70.3636 418.18 70.3636ZM421.522 74.0625V78H420.516V71.4545H421.488V72.4773H421.573C421.726 72.1449 421.959 71.8778 422.272 71.6761C422.584 71.4716 422.988 71.3693 423.482 71.3693C423.925 71.3693 424.313 71.4602 424.645 71.642C424.978 71.821 425.236 72.0938 425.421 72.4602C425.606 72.8239 425.698 73.2841 425.698 73.8409V78H424.692V73.9091C424.692 73.3949 424.559 72.9943 424.292 72.7074C424.025 72.4176 423.658 72.2727 423.192 72.2727C422.871 72.2727 422.584 72.3423 422.331 72.4815C422.081 72.6207 421.884 72.8239 421.739 73.0909C421.594 73.358 421.522 73.6818 421.522 74.0625ZM430.007 78.1364C429.462 78.1364 428.98 77.9986 428.563 77.723C428.145 77.4446 427.818 77.0526 427.583 76.5469C427.347 76.0384 427.229 75.4375 427.229 74.7443C427.229 74.0568 427.347 73.4602 427.583 72.9545C427.818 72.4489 428.146 72.0582 428.567 71.7827C428.987 71.5071 429.473 71.3693 430.024 71.3693C430.45 71.3693 430.787 71.4403 431.034 71.5824C431.284 71.7216 431.475 71.8807 431.605 72.0597C431.739 72.2358 431.843 72.3807 431.916 72.4943H432.002V69.2727H433.007V78H432.036V76.9943H431.916C431.843 77.1136 431.737 77.2642 431.601 77.446C431.465 77.625 431.27 77.7855 431.017 77.9276C430.764 78.0668 430.428 78.1364 430.007 78.1364ZM430.144 77.233C430.547 77.233 430.888 77.1278 431.166 76.9176C431.445 76.7045 431.656 76.4105 431.801 76.0355C431.946 75.6577 432.019 75.2216 432.019 74.7273C432.019 74.2386 431.948 73.8111 431.806 73.4446C431.664 73.0753 431.453 72.7884 431.175 72.5838C430.896 72.3764 430.553 72.2727 430.144 72.2727C429.718 72.2727 429.362 72.3821 429.078 72.6009C428.797 72.8168 428.585 73.1108 428.443 73.483C428.304 73.8523 428.235 74.267 428.235 74.7273C428.235 75.1932 428.306 75.6165 428.448 75.9972C428.593 76.375 428.806 76.6761 429.087 76.9006C429.371 77.1222 429.723 77.233 430.144 77.233ZM437.648 78.1364C437.057 78.1364 436.539 77.9957 436.093 77.7145C435.649 77.4332 435.303 77.0398 435.053 76.5341C434.806 76.0284 434.682 75.4375 434.682 74.7614C434.682 74.0795 434.806 73.4844 435.053 72.9759C435.303 72.4673 435.649 72.0724 436.093 71.7912C436.539 71.5099 437.057 71.3693 437.648 71.3693C438.239 71.3693 438.756 71.5099 439.199 71.7912C439.645 72.0724 439.992 72.4673 440.239 72.9759C440.489 73.4844 440.614 74.0795 440.614 74.7614C440.614 75.4375 440.489 76.0284 440.239 76.5341C439.992 77.0398 439.645 77.4332 439.199 77.7145C438.756 77.9957 438.239 78.1364 437.648 78.1364ZM437.648 77.233C438.097 77.233 438.466 77.1179 438.756 76.8878C439.046 76.6577 439.26 76.3551 439.399 75.9801C439.539 75.6051 439.608 75.1989 439.608 74.7614C439.608 74.3239 439.539 73.9162 439.399 73.5384C439.26 73.1605 439.046 72.8551 438.756 72.6222C438.466 72.3892 438.097 72.2727 437.648 72.2727C437.199 72.2727 436.83 72.3892 436.54 72.6222C436.25 72.8551 436.036 73.1605 435.896 73.5384C435.757 73.9162 435.688 74.3239 435.688 74.7614C435.688 75.1989 435.757 75.6051 435.896 75.9801C436.036 76.3551 436.25 76.6577 436.54 76.8878C436.83 77.1179 437.199 77.233 437.648 77.233ZM443.409 78L441.415 71.4545H442.472L443.887 76.4659H443.955L445.352 71.4545H446.426L447.807 76.4489H447.875L449.29 71.4545H450.347L448.352 78H447.364L445.932 72.9716H445.83L444.398 78H443.409ZM456.313 72.9205L455.409 73.1761C455.352 73.0256 455.269 72.8793 455.158 72.7372C455.05 72.5923 454.902 72.473 454.715 72.3793C454.527 72.2855 454.287 72.2386 453.994 72.2386C453.594 72.2386 453.26 72.331 452.993 72.5156C452.729 72.6974 452.597 72.929 452.597 73.2102C452.597 73.4602 452.688 73.6577 452.869 73.8026C453.051 73.9474 453.335 74.0682 453.722 74.1648L454.693 74.4034C455.279 74.5455 455.715 74.7628 456.002 75.0554C456.289 75.3452 456.432 75.7187 456.432 76.1761C456.432 76.5511 456.324 76.8864 456.108 77.1818C455.895 77.4773 455.597 77.7102 455.213 77.8807C454.83 78.0511 454.384 78.1364 453.875 78.1364C453.208 78.1364 452.655 77.9915 452.218 77.7017C451.78 77.4119 451.503 76.9886 451.387 76.4318L452.341 76.1932C452.432 76.5455 452.604 76.8097 452.857 76.9858C453.112 77.1619 453.446 77.25 453.858 77.25C454.327 77.25 454.699 77.1506 454.975 76.9517C455.253 76.75 455.392 76.5085 455.392 76.2273C455.392 76 455.313 75.8097 455.154 75.6562C454.994 75.5 454.75 75.3835 454.421 75.3068L453.33 75.0511C452.73 74.9091 452.29 74.6889 452.009 74.3906C451.73 74.0895 451.591 73.7131 451.591 73.2614C451.591 72.892 451.695 72.5653 451.902 72.2812C452.112 71.9972 452.398 71.7741 452.759 71.6122C453.122 71.4503 453.534 71.3693 453.994 71.3693C454.642 71.3693 455.151 71.5114 455.52 71.7955C455.892 72.0795 456.156 72.4545 456.313 72.9205ZM464.406 68.8636L461.594 79.3125H460.673L463.486 68.8636H464.406ZM469.468 78H468.36L471.564 69.2727H472.655L475.86 78H474.752L472.144 70.6534H472.075L469.468 78ZM469.877 74.5909H474.343V75.5284H469.877V74.5909ZM479.519 71.4545V72.3068H476.127V71.4545H479.519ZM477.116 69.8864H478.121V76.125C478.121 76.4091 478.162 76.6222 478.245 76.7642C478.33 76.9034 478.438 76.9972 478.569 77.0455C478.702 77.0909 478.843 77.1136 478.991 77.1136C479.101 77.1136 479.192 77.108 479.263 77.0966C479.334 77.0824 479.391 77.071 479.434 77.0625L479.638 77.9659C479.57 77.9915 479.475 78.017 479.353 78.0426C479.231 78.071 479.076 78.0852 478.888 78.0852C478.604 78.0852 478.326 78.0241 478.053 77.902C477.783 77.7798 477.559 77.5938 477.38 77.3438C477.204 77.0938 477.116 76.7784 477.116 76.3977V69.8864ZM483.878 71.4545V72.3068H480.486V71.4545H483.878ZM481.475 69.8864H482.481V76.125C482.481 76.4091 482.522 76.6222 482.604 76.7642C482.689 76.9034 482.797 76.9972 482.928 77.0455C483.062 77.0909 483.202 77.1136 483.35 77.1136C483.461 77.1136 483.552 77.108 483.623 77.0966C483.694 77.0824 483.751 77.071 483.793 77.0625L483.998 77.9659C483.93 77.9915 483.834 78.017 483.712 78.0426C483.59 78.071 483.435 78.0852 483.248 78.0852C482.964 78.0852 482.685 78.0241 482.412 77.902C482.143 77.7798 481.918 77.5938 481.739 77.3438C481.563 77.0938 481.475 76.7784 481.475 76.3977V69.8864ZM487.317 78.1534C486.903 78.1534 486.526 78.0753 486.188 77.919C485.85 77.7599 485.581 77.5312 485.383 77.233C485.184 76.9318 485.084 76.5682 485.084 76.142C485.084 75.767 485.158 75.4631 485.306 75.2301C485.454 74.9943 485.651 74.8097 485.898 74.6761C486.145 74.5426 486.418 74.4432 486.716 74.3778C487.018 74.3097 487.32 74.2557 487.624 74.2159C488.022 74.1648 488.344 74.1264 488.591 74.1009C488.841 74.0724 489.023 74.0256 489.137 73.9602C489.253 73.8949 489.312 73.7812 489.312 73.6193V73.5852C489.312 73.1648 489.197 72.8381 488.966 72.6051C488.739 72.3722 488.394 72.2557 487.931 72.2557C487.451 72.2557 487.074 72.3608 486.802 72.571C486.529 72.7812 486.337 73.0057 486.226 73.2443L485.272 72.9034C485.442 72.5057 485.67 72.196 485.954 71.9744C486.241 71.75 486.553 71.5937 486.891 71.5057C487.232 71.4148 487.567 71.3693 487.897 71.3693C488.107 71.3693 488.349 71.3949 488.621 71.446C488.897 71.4943 489.162 71.5952 489.418 71.7486C489.677 71.902 489.891 72.1335 490.062 72.4432C490.232 72.7528 490.317 73.1676 490.317 73.6875V78H489.312V77.1136H489.26C489.192 77.2557 489.079 77.4077 488.92 77.5696C488.76 77.7315 488.549 77.8693 488.285 77.983C488.02 78.0966 487.698 78.1534 487.317 78.1534ZM487.471 77.25C487.868 77.25 488.204 77.1719 488.476 77.0156C488.752 76.8594 488.959 76.6577 489.099 76.4105C489.241 76.1634 489.312 75.9034 489.312 75.6307V74.7102C489.269 74.7614 489.175 74.8082 489.03 74.8509C488.888 74.8906 488.724 74.9261 488.536 74.9574C488.351 74.9858 488.171 75.0114 487.995 75.0341C487.822 75.054 487.681 75.071 487.573 75.0852C487.312 75.1193 487.067 75.1747 486.84 75.2514C486.616 75.3253 486.434 75.4375 486.295 75.5881C486.158 75.7358 486.09 75.9375 486.09 76.1932C486.09 76.5426 486.219 76.8068 486.478 76.9858C486.739 77.1619 487.07 77.25 487.471 77.25ZM494.812 78.1364C494.198 78.1364 493.67 77.9915 493.227 77.7017C492.784 77.4119 492.443 77.0128 492.204 76.5043C491.965 75.9957 491.846 75.4148 491.846 74.7614C491.846 74.0966 491.968 73.5099 492.213 73.0014C492.46 72.4901 492.803 72.0909 493.244 71.804C493.687 71.5142 494.204 71.3693 494.795 71.3693C495.255 71.3693 495.67 71.4545 496.039 71.625C496.409 71.7955 496.711 72.0341 496.947 72.3409C497.183 72.6477 497.329 73.0057 497.386 73.4148H496.38C496.303 73.1165 496.133 72.8523 495.869 72.6222C495.607 72.3892 495.255 72.2727 494.812 72.2727C494.42 72.2727 494.076 72.375 493.781 72.5795C493.488 72.7812 493.259 73.0668 493.095 73.4361C492.933 73.8026 492.852 74.233 492.852 74.7273C492.852 75.233 492.931 75.6733 493.09 76.0483C493.252 76.4233 493.48 76.7145 493.772 76.9219C494.068 77.1293 494.414 77.233 494.812 77.233C495.073 77.233 495.311 77.1875 495.524 77.0966C495.737 77.0057 495.917 76.875 496.065 76.7045C496.213 76.5341 496.318 76.3295 496.38 76.0909H497.386C497.329 76.4773 497.188 76.8253 496.964 77.1349C496.742 77.4418 496.448 77.6861 496.082 77.8679C495.718 78.0469 495.295 78.1364 494.812 78.1364ZM499.794 75.6136L499.776 74.3693H499.981L502.845 71.4545H504.089L501.038 74.5398H500.953L499.794 75.6136ZM498.856 78V69.2727H499.862V78H498.856ZM503.015 78L500.458 74.7614L501.174 74.0625L504.294 78H503.015ZM507.858 78.1364C507.227 78.1364 506.683 77.9972 506.226 77.7188C505.771 77.4375 505.421 77.0455 505.173 76.5426C504.929 76.0369 504.807 75.4489 504.807 74.7784C504.807 74.108 504.929 73.517 505.173 73.0057C505.421 72.4915 505.764 72.0909 506.205 71.804C506.648 71.5142 507.165 71.3693 507.756 71.3693C508.097 71.3693 508.433 71.4261 508.766 71.5398C509.098 71.6534 509.401 71.8381 509.673 72.0938C509.946 72.3466 510.164 72.6818 510.325 73.0994C510.487 73.517 510.568 74.0312 510.568 74.642V75.0682H505.523V74.1989H509.546C509.546 73.8295 509.472 73.5 509.324 73.2102C509.179 72.9205 508.972 72.6918 508.702 72.5241C508.435 72.3565 508.119 72.2727 507.756 72.2727C507.355 72.2727 507.009 72.3722 506.716 72.571C506.426 72.767 506.203 73.0227 506.047 73.3381C505.891 73.6534 505.813 73.9915 505.813 74.3523V74.9318C505.813 75.4261 505.898 75.8452 506.068 76.1889C506.242 76.5298 506.482 76.7898 506.789 76.9688C507.095 77.1449 507.452 77.233 507.858 77.233C508.122 77.233 508.361 77.196 508.574 77.1222C508.79 77.0455 508.976 76.9318 509.132 76.7812C509.289 76.6278 509.409 76.4375 509.494 76.2102L510.466 76.483C510.364 76.8125 510.192 77.1023 509.95 77.3523C509.709 77.5994 509.411 77.7926 509.056 77.9318C508.7 78.0682 508.301 78.1364 507.858 78.1364ZM512.098 78V71.4545H513.07V72.4432H513.138C513.257 72.1193 513.473 71.8565 513.786 71.6548C514.098 71.4531 514.45 71.3523 514.843 71.3523C514.916 71.3523 515.009 71.3537 515.119 71.3565C515.23 71.3594 515.314 71.3636 515.371 71.3693V72.392C515.337 72.3835 515.259 72.3707 515.137 72.3537C515.017 72.3338 514.891 72.3239 514.757 72.3239C514.439 72.3239 514.155 72.3906 513.905 72.5241C513.658 72.6548 513.462 72.8366 513.317 73.0696C513.175 73.2997 513.104 73.5625 513.104 73.858V78H512.098Z" fill="#A2A2A2"/>
<path fill-rule="evenodd" clip-rule="evenodd" d="M441.505 3.28233C439.675 3.28233 438.191 4.80836 438.191 6.69091V29.5007C438.191 31.3832 439.675 32.9093 441.505 32.9093H478.495C480.325 32.9093 481.809 31.3832 481.809 29.5007V6.69091C481.809 4.80836 480.325 3.28233 478.495 3.28233H472.947H447.029H441.505ZM435 6.69091C435 2.99563 437.913 0 441.505 0H447.029H472.947H478.495C482.087 0 485 2.99557 485 6.69091V29.5007C485 33.196 482.087 36.1916 478.495 36.1916H461.596V41.7177H471.256C472.137 41.7177 472.851 42.4524 472.851 43.3588C472.851 44.2652 472.137 45 471.256 45H448.744C447.863 45 447.149 44.2652 447.149 43.3588C447.149 42.4524 447.863 41.7177 448.744 41.7177H458.404V36.1916H441.505C437.913 36.1916 435 33.196 435 29.5007V6.69091Z" fill="#CCCCCC"/>
<path fill-rule="evenodd" clip-rule="evenodd" d="M460.798 6.56658C460.304 6.27338 459.696 6.27338 459.202 6.56658L450.907 11.4921C450.414 11.7853 450.11 12.3271 450.11 12.9134V22.7644C450.11 23.3508 450.414 23.8926 450.907 24.1858L459.202 29.1113C459.696 29.4045 460.304 29.4045 460.798 29.1113L469.093 24.1858C469.586 23.8926 469.89 23.3508 469.89 22.7644V12.9134C469.89 12.3271 469.586 11.7853 469.093 11.4921L460.798 6.56658ZM453.301 15.73V21.8169L460 25.7949L466.699 21.8169V15.7317L460.798 19.26C460.304 19.5532 459.696 19.5532 459.202 19.26L453.301 15.73ZM465.084 12.9019L460 9.88293L454.917 12.901L460 15.9437L465.084 12.9019Z" fill="#CCCCCC"/>
<path d="M445.97 52.8182L448.993 61.3892H449.112L452.135 52.8182H453.427L449.689 63H448.416L444.677 52.8182H445.97ZM455.013 52.8182H456.485L459.945 61.2699H460.064L463.525 52.8182H464.996V63H463.843V55.2642H463.743L460.562 63H459.448L456.266 55.2642H456.167V63H455.013V52.8182ZM474.806 52.8182V63H473.573V54.1108H473.514L471.028 55.7614V54.5085L473.573 52.8182H474.806Z" fill="#CCCCCC"/>
<line x1="60" y1="104" x2="105" y2="104" stroke="#CCCCCC" stroke-width="2"/>
<line x1="175" y1="104" x2="220" y2="104" stroke="#CCCCCC" stroke-width="2"/>
<line x1="220" y1="150" x2="265" y2="150" stroke="#CCCCCC" stroke-width="2"/>
<line x1="220" y1="61" x2="265" y2="61" stroke="#CCCCCC" stroke-width="2"/>
<line x1="221" y1="60" x2="221" y2="150" stroke="#CCCCCC" stroke-width="2"/>
<line x1="336" y1="61" x2="381" y2="61" stroke="#CCCCCC" stroke-width="2"/>
<line x1="381" y1="107" x2="426" y2="107" stroke="#CCCCCC" stroke-width="2"/>
<line x1="381" y1="18" x2="426" y2="18" stroke="#CCCCCC" stroke-width="2"/>
<line x1="382" y1="17" x2="382" y2="107" stroke="#CCCCCC" stroke-width="2"/>
<path d="M302 211V234H464V178" stroke="#CCCCCC" stroke-width="2"/>
<path d="M100.233 148V137.818H101.466V142.352H106.895V137.818H108.128V148H106.895V143.446H101.466V148H100.233ZM113.539 148.159C112.85 148.159 112.245 147.995 111.725 147.667C111.208 147.339 110.803 146.88 110.512 146.29C110.223 145.7 110.079 145.01 110.079 144.222C110.079 143.426 110.223 142.732 110.512 142.138C110.803 141.545 111.208 141.085 111.725 140.756C112.245 140.428 112.85 140.264 113.539 140.264C114.229 140.264 114.832 140.428 115.349 140.756C115.869 141.085 116.274 141.545 116.562 142.138C116.854 142.732 117 143.426 117 144.222C117 145.01 116.854 145.7 116.562 146.29C116.274 146.88 115.869 147.339 115.349 147.667C114.832 147.995 114.229 148.159 113.539 148.159ZM113.539 147.105C114.063 147.105 114.494 146.971 114.832 146.702C115.17 146.434 115.42 146.081 115.583 145.643C115.745 145.206 115.826 144.732 115.826 144.222C115.826 143.711 115.745 143.236 115.583 142.795C115.42 142.354 115.17 141.998 114.832 141.726C114.494 141.454 114.063 141.318 113.539 141.318C113.016 141.318 112.585 141.454 112.247 141.726C111.909 141.998 111.658 142.354 111.496 142.795C111.334 143.236 111.252 143.711 111.252 144.222C111.252 144.732 111.334 145.206 111.496 145.643C111.658 146.081 111.909 146.434 112.247 146.702C112.585 146.971 113.016 147.105 113.539 147.105ZM118.791 148V140.364H119.924V141.557H120.024C120.183 141.149 120.44 140.833 120.794 140.607C121.149 140.379 121.575 140.264 122.072 140.264C122.576 140.264 122.995 140.379 123.33 140.607C123.668 140.833 123.931 141.149 124.12 141.557H124.2C124.395 141.162 124.689 140.849 125.08 140.617C125.471 140.382 125.94 140.264 126.487 140.264C127.169 140.264 127.728 140.478 128.162 140.906C128.596 141.33 128.813 141.991 128.813 142.889V148H127.64V142.889C127.64 142.326 127.486 141.923 127.178 141.681C126.869 141.439 126.507 141.318 126.089 141.318C125.552 141.318 125.136 141.481 124.841 141.805C124.546 142.127 124.399 142.535 124.399 143.028V148H123.205V142.77C123.205 142.336 123.065 141.986 122.783 141.721C122.501 141.452 122.138 141.318 121.694 141.318C121.389 141.318 121.104 141.399 120.839 141.562C120.577 141.724 120.365 141.95 120.203 142.238C120.044 142.523 119.964 142.853 119.964 143.227V148H118.791ZM134.16 148.159C133.425 148.159 132.79 147.997 132.256 147.672C131.726 147.344 131.317 146.886 131.028 146.3C130.743 145.71 130.601 145.024 130.601 144.241C130.601 143.459 130.743 142.77 131.028 142.173C131.317 141.573 131.718 141.106 132.231 140.771C132.748 140.433 133.352 140.264 134.041 140.264C134.439 140.264 134.831 140.33 135.219 140.463C135.607 140.596 135.96 140.811 136.278 141.109C136.596 141.404 136.85 141.795 137.039 142.283C137.228 142.77 137.322 143.37 137.322 144.082V144.58H131.436V143.565H136.129C136.129 143.134 136.043 142.75 135.871 142.412C135.702 142.074 135.46 141.807 135.145 141.612C134.833 141.416 134.465 141.318 134.041 141.318C133.574 141.318 133.169 141.434 132.828 141.666C132.49 141.895 132.23 142.193 132.047 142.561C131.865 142.929 131.774 143.323 131.774 143.744V144.42C131.774 144.997 131.873 145.486 132.072 145.887C132.274 146.285 132.555 146.588 132.912 146.797C133.27 147.002 133.686 147.105 134.16 147.105C134.469 147.105 134.747 147.062 134.996 146.976C135.247 146.886 135.465 146.754 135.647 146.578C135.829 146.399 135.97 146.177 136.069 145.912L137.203 146.23C137.084 146.615 136.883 146.953 136.601 147.244C136.32 147.533 135.972 147.758 135.557 147.92C135.143 148.08 134.677 148.159 134.16 148.159ZM143.045 148V140.364H144.178V141.517H144.258C144.397 141.139 144.649 140.833 145.013 140.597C145.378 140.362 145.789 140.244 146.246 140.244C146.332 140.244 146.44 140.246 146.569 140.249C146.699 140.253 146.796 140.258 146.863 140.264V141.457C146.823 141.447 146.732 141.433 146.589 141.413C146.45 141.389 146.303 141.378 146.147 141.378C145.776 141.378 145.444 141.456 145.153 141.612C144.864 141.764 144.635 141.976 144.466 142.248C144.301 142.516 144.218 142.823 144.218 143.168V148H143.045ZM151.123 148.159C150.434 148.159 149.829 147.995 149.309 147.667C148.792 147.339 148.387 146.88 148.096 146.29C147.807 145.7 147.663 145.01 147.663 144.222C147.663 143.426 147.807 142.732 148.096 142.138C148.387 141.545 148.792 141.085 149.309 140.756C149.829 140.428 150.434 140.264 151.123 140.264C151.813 140.264 152.416 140.428 152.933 140.756C153.453 141.085 153.858 141.545 154.146 142.138C154.438 142.732 154.584 143.426 154.584 144.222C154.584 145.01 154.438 145.7 154.146 146.29C153.858 146.88 153.453 147.339 152.933 147.667C152.416 147.995 151.813 148.159 151.123 148.159ZM151.123 147.105C151.647 147.105 152.078 146.971 152.416 146.702C152.754 146.434 153.004 146.081 153.167 145.643C153.329 145.206 153.41 144.732 153.41 144.222C153.41 143.711 153.329 143.236 153.167 142.795C153.004 142.354 152.754 141.998 152.416 141.726C152.078 141.454 151.647 141.318 151.123 141.318C150.6 141.318 150.169 141.454 149.831 141.726C149.493 141.998 149.242 142.354 149.08 142.795C148.918 143.236 148.836 143.711 148.836 144.222C148.836 144.732 148.918 145.206 149.08 145.643C149.242 146.081 149.493 146.434 149.831 146.702C150.169 146.971 150.6 147.105 151.123 147.105ZM161.187 144.878V140.364H162.36V148H161.187V146.707H161.108C160.929 147.095 160.65 147.425 160.272 147.697C159.895 147.965 159.417 148.099 158.841 148.099C158.363 148.099 157.939 147.995 157.568 147.786C157.197 147.574 156.905 147.256 156.693 146.832C156.481 146.404 156.375 145.866 156.375 145.216V140.364H157.548V145.136C157.548 145.693 157.704 146.137 158.015 146.469C158.33 146.8 158.731 146.966 159.218 146.966C159.51 146.966 159.807 146.891 160.108 146.742C160.413 146.593 160.668 146.364 160.874 146.056C161.083 145.748 161.187 145.355 161.187 144.878ZM167.83 140.364V141.358H163.873V140.364H167.83ZM165.026 138.534H166.2V145.812C166.2 146.144 166.248 146.393 166.344 146.558C166.443 146.721 166.569 146.83 166.722 146.886C166.878 146.939 167.042 146.966 167.214 146.966C167.343 146.966 167.449 146.959 167.532 146.946C167.615 146.929 167.681 146.916 167.731 146.906L167.97 147.96C167.89 147.99 167.779 148.02 167.637 148.05C167.494 148.083 167.313 148.099 167.095 148.099C166.763 148.099 166.438 148.028 166.12 147.886C165.805 147.743 165.544 147.526 165.335 147.234C165.129 146.943 165.026 146.575 165.026 146.131V138.534ZM172.715 148.159C171.979 148.159 171.345 147.997 170.811 147.672C170.281 147.344 169.871 146.886 169.583 146.3C169.298 145.71 169.155 145.024 169.155 144.241C169.155 143.459 169.298 142.77 169.583 142.173C169.871 141.573 170.272 141.106 170.786 140.771C171.303 140.433 171.906 140.264 172.596 140.264C172.993 140.264 173.386 140.33 173.774 140.463C174.162 140.596 174.515 140.811 174.833 141.109C175.151 141.404 175.405 141.795 175.594 142.283C175.782 142.77 175.877 143.37 175.877 144.082V144.58H169.991V143.565H174.684C174.684 143.134 174.598 142.75 174.425 142.412C174.256 142.074 174.014 141.807 173.699 141.612C173.388 141.416 173.02 141.318 172.596 141.318C172.128 141.318 171.724 141.434 171.383 141.666C171.045 141.895 170.784 142.193 170.602 142.561C170.42 142.929 170.329 143.323 170.329 143.744V144.42C170.329 144.997 170.428 145.486 170.627 145.887C170.829 146.285 171.109 146.588 171.467 146.797C171.825 147.002 172.241 147.105 172.715 147.105C173.023 147.105 173.302 147.062 173.55 146.976C173.802 146.886 174.019 146.754 174.202 146.578C174.384 146.399 174.525 146.177 174.624 145.912L175.758 146.23C175.638 146.615 175.438 146.953 175.156 147.244C174.874 147.533 174.526 147.758 174.112 147.92C173.698 148.08 173.232 148.159 172.715 148.159ZM177.662 148V140.364H178.795V141.517H178.875C179.014 141.139 179.266 140.833 179.631 140.597C179.995 140.362 180.406 140.244 180.863 140.244C180.95 140.244 181.057 140.246 181.187 140.249C181.316 140.253 181.414 140.258 181.48 140.264V141.457C181.44 141.447 181.349 141.433 181.206 141.413C181.067 141.389 180.92 141.378 180.764 141.378C180.393 141.378 180.061 141.456 179.77 141.612C179.481 141.764 179.253 141.976 179.084 142.248C178.918 142.516 178.835 142.823 178.835 143.168V148H177.662Z" fill="#CCCCCC"/>
<path d="M130 94.4231C132.5 91.3461 136.154 89.6154 140 89.6154C143.846 89.6154 147.5 91.3461 150 94.4231C150.384 94.8077 150.961 95.1923 151.538 95.1923C151.923 95.1923 152.308 95 152.692 94.8077C153.461 94.2308 153.654 92.8846 152.884 92.1154C149.808 88.0769 145 85.7692 140 85.7692C135 85.7692 130.192 88.0769 126.923 91.9231C126.346 92.6923 126.346 94.0385 127.115 94.6154C128.077 95.3846 129.231 95.1923 130 94.4231Z" fill="#CCCCCC"/>
<path d="M147.5 99.2308C147.885 99.2308 148.269 99.0385 148.654 98.8461C149.423 98.2692 149.615 96.9231 149.038 96.1538C146.923 93.2692 143.461 91.5385 140 91.5385C136.538 91.5385 133.077 93.2692 130.961 96.1538C130.385 96.9231 130.577 98.2692 131.346 98.8461C132.115 99.4231 133.461 99.2308 134.038 98.4615C135.385 96.5385 137.692 95.3846 140 95.3846C142.308 95.3846 144.615 96.5385 145.961 98.4615C146.346 99.0385 146.923 99.2308 147.5 99.2308Z" fill="#CCCCCC"/>
<path d="M140 97.3077C137.692 97.3077 135.769 98.6538 134.808 100.769C134.423 101.731 134.808 102.885 135.769 103.269C136.731 103.654 137.885 103.269 138.269 102.308C138.654 101.538 139.231 101.154 140 101.154C140.769 101.154 141.346 101.538 141.731 102.308C142.115 103.077 142.692 103.462 143.462 103.462C143.654 103.462 144.039 103.462 144.231 103.269C145.192 102.885 145.577 101.731 145.192 100.769C144.231 98.6538 142.308 97.3077 140 97.3077Z" fill="#CCCCCC"/>
<path d="M161.154 111.154V81.9231C161.154 80.7692 160.385 80 159.231 80C158.077 80 157.308 80.7692 157.308 81.9231V110.769H122.692V81.9231C122.692 80.7692 121.923 80 120.769 80C119.615 80 118.846 80.7692 118.846 81.9231V111.154C116.538 111.923 115 114.038 115 116.538V124.231C115 127.5 117.5 130 120.769 130H159.231C162.5 130 165 127.5 165 124.231V116.538C165 114.038 163.462 111.923 161.154 111.154ZM132.308 122.308H124.615C123.462 122.308 122.692 121.538 122.692 120.385C122.692 119.231 123.462 118.462 124.615 118.462H132.308C133.462 118.462 134.231 119.231 134.231 120.385C134.231 121.538 133.462 122.308 132.308 122.308ZM145.192 121.731C145.192 121.731 145 121.923 144.808 121.923C144.808 121.923 144.615 122.115 144.423 122.115C144.231 122.115 144.231 122.115 144.038 122.308C143.846 122.308 143.846 122.308 143.654 122.308C143.462 122.308 143.077 122.308 142.885 122.115C142.692 121.923 142.5 121.923 142.308 121.731C142.115 121.346 141.923 120.962 141.923 120.385C141.923 120.192 141.923 119.808 142.115 119.615C142.115 119.423 142.308 119.231 142.5 119.038C142.692 118.846 142.885 118.654 143.077 118.654C143.846 118.462 144.615 118.462 145.192 119.038C145.385 119.231 145.577 119.423 145.577 119.615C145.577 119.808 145.769 120 145.769 120.385C145.769 120.962 145.577 121.346 145.192 121.731ZM150.962 121.731C150.962 121.731 150.769 121.923 150.577 121.923C150.577 121.923 150.385 122.115 150.192 122.115C150 122.115 150 122.115 149.808 122.308C149.615 122.308 149.615 122.308 149.423 122.308C149.231 122.308 149.231 122.308 149.038 122.308C148.846 122.308 148.846 122.308 148.654 122.115C148.462 122.115 148.462 121.923 148.269 121.923L148.077 121.731C147.885 121.346 147.692 120.962 147.692 120.385C147.692 120.192 147.692 119.808 147.885 119.615C147.885 119.423 148.077 119.231 148.269 119.038C149.038 118.269 150.192 118.269 150.962 119.038C151.154 119.231 151.346 119.423 151.346 119.615C151.346 119.808 151.538 120 151.538 120.385C151.538 120.962 151.346 121.346 150.962 121.731ZM157.308 120.769C157.308 120.962 157.308 120.962 157.115 121.154C157.115 121.346 157.115 121.346 156.923 121.538L156.731 121.731C156.731 121.731 156.538 121.923 156.346 121.923C156.154 121.923 156.154 122.115 155.962 122.115C155.769 122.115 155.769 122.115 155.577 122.308C155.385 122.308 155.385 122.308 155.192 122.308C155 122.308 155 122.308 154.808 122.308C154.615 122.308 154.615 122.308 154.423 122.115C154.231 122.115 154.231 121.923 154.038 121.923L153.846 121.731C153.654 121.346 153.462 120.962 153.462 120.385C153.462 120.192 153.462 119.808 153.654 119.615C153.654 119.423 153.846 119.231 154.038 119.038C154.808 118.269 155.962 118.269 156.731 119.038C157.115 119.423 157.308 119.808 157.308 120.385C157.308 120.577 157.308 120.577 157.308 120.769Z" fill="#CCCCCC"/>
<path d="M2.46591 137.818V148H1.23295V137.818H2.46591ZM5.95224 143.406V148H4.77894V140.364H5.91246V141.557H6.0119C6.19087 141.169 6.46265 140.857 6.82724 140.622C7.19182 140.384 7.66246 140.264 8.23917 140.264C8.75621 140.264 9.20863 140.37 9.59641 140.582C9.9842 140.791 10.2858 141.109 10.5012 141.537C10.7167 141.961 10.8244 142.498 10.8244 143.148V148H9.6511V143.227C9.6511 142.627 9.49532 142.16 9.18377 141.825C8.87222 141.487 8.44466 141.318 7.9011 141.318C7.52657 141.318 7.19182 141.399 6.89684 141.562C6.60517 141.724 6.37482 141.961 6.20579 142.273C6.03675 142.584 5.95224 142.962 5.95224 143.406ZM16.2894 140.364V141.358H12.332V140.364H16.2894ZM13.4854 138.534H14.6587V145.812C14.6587 146.144 14.7068 146.393 14.8029 146.558C14.9023 146.721 15.0283 146.83 15.1808 146.886C15.3365 146.939 15.5006 146.966 15.6729 146.966C15.8022 146.966 15.9083 146.959 15.9911 146.946C16.074 146.929 16.1403 146.916 16.19 146.906L16.4286 147.96C16.3491 147.99 16.238 148.02 16.0955 148.05C15.953 148.083 15.7724 148.099 15.5536 148.099C15.2222 148.099 14.8974 148.028 14.5792 147.886C14.2643 147.743 14.0025 147.526 13.7937 147.234C13.5882 146.943 13.4854 146.575 13.4854 146.131V138.534ZM21.174 148.159C20.4382 148.159 19.8035 147.997 19.2699 147.672C18.7396 147.344 18.3303 146.886 18.0419 146.3C17.7569 145.71 17.6143 145.024 17.6143 144.241C17.6143 143.459 17.7569 142.77 18.0419 142.173C18.3303 141.573 18.7313 141.106 19.245 140.771C19.7621 140.433 20.3653 140.264 21.0547 140.264C21.4524 140.264 21.8452 140.33 22.233 140.463C22.6207 140.596 22.9737 140.811 23.2919 141.109C23.6101 141.404 23.8636 141.795 24.0526 142.283C24.2415 142.77 24.3359 143.37 24.3359 144.082V144.58H18.4496V143.565H23.1428C23.1428 143.134 23.0566 142.75 22.8842 142.412C22.7152 142.074 22.4732 141.807 22.1584 141.612C21.8468 141.416 21.4789 141.318 21.0547 141.318C20.5874 141.318 20.183 141.434 19.8416 141.666C19.5036 141.895 19.2434 142.193 19.0611 142.561C18.8788 142.929 18.7876 143.323 18.7876 143.744V144.42C18.7876 144.997 18.8871 145.486 19.0859 145.887C19.2881 146.285 19.5682 146.588 19.9261 146.797C20.2841 147.002 20.7 147.105 21.174 147.105C21.4822 147.105 21.7607 147.062 22.0092 146.976C22.2611 146.886 22.4782 146.754 22.6605 146.578C22.8428 146.399 22.9837 146.177 23.0831 145.912L24.2166 146.23C24.0973 146.615 23.8968 146.953 23.6151 147.244C23.3333 147.533 22.9853 147.758 22.571 147.92C22.1567 148.08 21.6911 148.159 21.174 148.159ZM26.1207 148V140.364H27.2543V141.517H27.3338C27.473 141.139 27.7249 140.833 28.0895 140.597C28.4541 140.362 28.8651 140.244 29.3224 140.244C29.4086 140.244 29.5163 140.246 29.6456 140.249C29.7749 140.253 29.8726 140.258 29.9389 140.264V141.457C29.8991 141.447 29.808 141.433 29.6655 141.413C29.5263 141.389 29.3788 141.378 29.223 141.378C28.8518 141.378 28.5204 141.456 28.2287 141.612C27.9403 141.764 27.7116 141.976 27.5426 142.248C27.3769 142.516 27.294 142.823 27.294 143.168V148H26.1207ZM32.503 143.406V148H31.3297V140.364H32.4632V141.557H32.5627C32.7417 141.169 33.0134 140.857 33.378 140.622C33.7426 140.384 34.2132 140.264 34.79 140.264C35.307 140.264 35.7594 140.37 36.1472 140.582C36.535 140.791 36.8366 141.109 37.052 141.537C37.2675 141.961 37.3752 142.498 37.3752 143.148V148H36.2019V143.227C36.2019 142.627 36.0461 142.16 35.7346 141.825C35.423 141.487 34.9954 141.318 34.4519 141.318C34.0774 141.318 33.7426 141.399 33.4476 141.562C33.156 141.724 32.9256 141.961 32.7566 142.273C32.5875 142.584 32.503 142.962 32.503 143.406ZM42.7209 148.159C41.9851 148.159 41.3504 147.997 40.8168 147.672C40.2865 147.344 39.8771 146.886 39.5888 146.3C39.3037 145.71 39.1612 145.024 39.1612 144.241C39.1612 143.459 39.3037 142.77 39.5888 142.173C39.8771 141.573 40.2782 141.106 40.7919 140.771C41.3089 140.433 41.9122 140.264 42.6016 140.264C42.9993 140.264 43.392 140.33 43.7798 140.463C44.1676 140.596 44.5206 140.811 44.8388 141.109C45.157 141.404 45.4105 141.795 45.5994 142.283C45.7884 142.77 45.8828 143.37 45.8828 144.082V144.58H39.9964V143.565H44.6896C44.6896 143.134 44.6035 142.75 44.4311 142.412C44.2621 142.074 44.0201 141.807 43.7053 141.612C43.3937 141.416 43.0258 141.318 42.6016 141.318C42.1342 141.318 41.7299 141.434 41.3885 141.666C41.0504 141.895 40.7902 142.193 40.608 142.561C40.4257 142.929 40.3345 143.323 40.3345 143.744V144.42C40.3345 144.997 40.4339 145.486 40.6328 145.887C40.835 146.285 41.1151 146.588 41.473 146.797C41.831 147.002 42.2469 147.105 42.7209 147.105C43.0291 147.105 43.3075 147.062 43.5561 146.976C43.808 146.886 44.0251 146.754 44.2074 146.578C44.3897 146.399 44.5305 146.177 44.63 145.912L45.7635 146.23C45.6442 146.615 45.4437 146.953 45.1619 147.244C44.8802 147.533 44.5322 147.758 44.1179 147.92C43.7036 148.08 43.2379 148.159 42.7209 148.159ZM50.9886 140.364V141.358H47.0312V140.364H50.9886ZM48.1847 138.534H49.358V145.812C49.358 146.144 49.406 146.393 49.5021 146.558C49.6016 146.721 49.7275 146.83 49.88 146.886C50.0357 146.939 50.1998 146.966 50.3722 146.966C50.5014 146.966 50.6075 146.959 50.6903 146.946C50.7732 146.929 50.8395 146.916 50.8892 146.906L51.1278 147.96C51.0483 147.99 50.9373 148.02 50.7947 148.05C50.6522 148.083 50.4716 148.099 50.2528 148.099C49.9214 148.099 49.5966 148.028 49.2784 147.886C48.9635 147.743 48.7017 147.526 48.4929 147.234C48.2874 146.943 48.1847 146.575 48.1847 146.131V138.534Z" fill="#CCCCCC"/>
<path d="M26 80C12.2135 80 1 91.2135 1 105C1 118.787 12.2135 130 26 130C39.7865 130 51 118.787 51 105C51 91.2135 39.7865 80 26 80ZM24.2954 83.7466V93.0683H17.5482C17.9925 91.6969 18.5022 90.4228 19.0753 89.3039C20.6032 86.3211 22.4441 84.4607 24.2954 83.7466ZM27.7046 83.7466C29.5559 84.4607 31.3969 86.3211 32.9247 89.3039C33.4974 90.4223 34.0075 91.6969 34.4518 93.0683H27.7046V83.7466ZM17.6548 85.0782C17.0694 85.8978 16.5281 86.7872 16.039 87.7416C15.2213 89.3376 14.5226 91.1322 13.9613 93.0683H7.99533C10.34 89.535 13.6947 86.733 17.6548 85.0782ZM34.3452 85.0782C38.3053 86.733 41.6595 89.535 44.0042 93.0683H38.0381C37.4773 91.1322 36.7782 89.3376 35.9605 87.7416C35.4719 86.7872 34.9306 85.8978 34.3452 85.0782ZM6.14915 96.4774H13.1448C12.7326 98.6295 12.4825 100.919 12.3989 103.295H4.47975C4.66801 100.888 5.23919 98.5958 6.14915 96.4774ZM16.6433 96.4774H24.2961V103.295H15.809C15.903 100.888 16.1954 98.5966 16.6433 96.4774ZM27.7045 96.4774H35.3573C35.8052 98.5966 36.0981 100.888 36.192 103.295H27.705L27.7045 96.4774ZM38.8551 96.4774H45.8507C46.7607 98.5958 47.3315 100.889 47.5197 103.295H39.6005C39.5169 100.919 39.2677 98.6295 38.8551 96.4774ZM4.48011 106.705H12.3992C12.4825 109.083 12.7322 111.372 13.1451 113.523H6.14951C5.24072 111.403 4.66639 109.112 4.48011 106.705ZM15.8082 106.705H24.2952V113.523H16.6425C16.1962 111.406 15.9018 109.109 15.8082 106.705ZM27.7045 106.705H36.1916C36.0984 109.109 35.8032 111.406 35.3569 113.523H27.7041L27.7045 106.705ZM39.6008 106.705H47.52C47.3333 109.112 46.7598 111.403 45.8511 113.523H38.8554C39.268 111.372 39.5172 109.083 39.6008 106.705ZM7.97747 116.932H13.9613C14.5221 118.865 15.2213 120.645 16.039 122.241C16.5352 123.209 17.0948 124.109 17.69 124.94C13.7097 123.284 10.3289 120.483 7.97747 116.932ZM17.5298 116.932H24.2948V126.254C22.444 125.539 20.6022 123.678 19.0748 120.696C18.4989 119.572 17.9757 118.312 17.5298 116.932ZM27.7033 116.932H34.4683C34.0225 118.311 33.4993 119.572 32.9234 120.696C31.3959 123.679 29.5542 125.539 27.7033 126.254V116.932ZM38.0371 116.932H44.021C41.6695 120.483 38.2893 123.284 34.3084 124.94C34.9037 124.109 35.4638 123.209 35.9595 122.241C36.7772 120.645 37.4759 118.865 38.0371 116.932Z" fill="#CCCCCC"/>
</svg>
